<svg xmlns="http://www.w3.org/2000/svg" xmlns:xlink="http://www.w3.org/1999/xlink" width="54.55" height="54.55" viewBox="0 0 54.55 54.55"><defs><linearGradient id="a" x1="0.5" x2="0.5" y2="1" gradientUnits="objectBoundingBox"><stop offset="0" stop-color="#ff2c32"/><stop offset="1" stop-color="#d81f0c"/></linearGradient><filter id="b" x="0" y="0" width="54.55" height="54.55" filterUnits="userSpaceOnUse"><feOffset dy="2" input="SourceAlpha"/><feGaussianBlur stdDeviation="3" result="c"/><feFlood flood-color="#dbe3ff"/><feComposite operator="in" in2="c"/><feComposite in="SourceGraphic"/></filter></defs><g transform="translate(-320 -2773.45)"><g transform="translate(-229 158.45)"><g transform="translate(404.5 2320)"><g transform="matrix(1, 0, 0, 1, 144.5, 295)" filter="url(#b)"><path d="M9.4,0H27.151a9.4,9.4,0,0,1,9.4,9.4V27.151a9.4,9.4,0,0,1-9.4,9.4H9.4a9.4,9.4,0,0,1-9.4-9.4V9.4A9.4,9.4,0,0,1,9.4,0Z" transform="translate(9 7)" fill="url(#a)"/></g></g></g><g transform="translate(335 2785.45)"><g transform="translate(0)"><path d="M1.328,10.86l1.614.551L1.587,12.6a4.821,4.821,0,0,0,.5.468q.287.287.5.468a.551.551,0,0,1,.176.237.358.358,0,0,1-.05.314,3.929,3.929,0,0,0-.154,2.683,5.692,5.692,0,0,0,.678,1.537,10.932,10.932,0,0,0,1.014,1.35q.077.077.237.259a1.366,1.366,0,0,1,.209.259q.132.237.468.909.287.551.5.887a17.941,17.941,0,0,0,1.8,2.446,11.312,11.312,0,0,0,2.265,2.055,6.755,6.755,0,0,0,1.537.782,5.245,5.245,0,0,0,1.719.287,6.491,6.491,0,0,0,3.956-1.653,12.8,12.8,0,0,0,3.907-5.6,1.312,1.312,0,0,1,.182-.336l.209-.314q.05-.077.623-.832a8.366,8.366,0,0,0,.551-.832,4.265,4.265,0,0,0,.419-3.752.832.832,0,0,1,0-.419,11.02,11.02,0,0,0-.5-6.612,15.307,15.307,0,0,0-2.369-3.984A19.219,19.219,0,0,0,16.53.132,1.559,1.559,0,0,0,16.293,0l.65,2.033a12.359,12.359,0,0,0-3.488-1.1A14.48,14.48,0,0,0,9.863.854a20.861,20.861,0,0,0-5,1.179A26.641,26.641,0,0,0,.209,4.3l-.077.077A.38.38,0,0,1,0,4.452L2.755,6.689.182,9.113l2.369.6L1.328,10.86m3.642,2.2v-.441a2.865,2.865,0,0,1,0-.441,1.5,1.5,0,0,1,.441-.65A.667.667,0,0,0,5.62,11.2a.551.551,0,0,0-.1-.364,2.287,2.287,0,0,1-.231-.364l-.237-.5q1.747.441,2.474.551a7.907,7.907,0,0,0,2.474,0,10.7,10.7,0,0,0,2.369-.65,13.031,13.031,0,0,0,2.265-1.1l-.314,1.653,4.408-1.482-.182,2.4,2.006-.419v2.413h-.1a1.5,1.5,0,0,0-.705-.755A2.116,2.116,0,0,0,18.7,12.4q-1.223.05-1.9.132a12.37,12.37,0,0,0-1.846.314,6.3,6.3,0,0,0-.832.314,1.515,1.515,0,0,0-.661.617.3.3,0,0,1-.077.05.231.231,0,0,1-.1,0,10.91,10.91,0,0,1-1.152-.05.237.237,0,0,1-.209-.077,2,2,0,0,0-.8-.705,3.394,3.394,0,0,0-.992-.259q-.8-.1-1.9-.209l-1.9-.132a1.333,1.333,0,0,0-1.251.727l-.1-.05M16.15,17.6a3.708,3.708,0,0,0,2.551.314,2.59,2.59,0,0,0,.623-.237l.65-.314q-.132.391-.336,1.174a12.245,12.245,0,0,1-.353,1.174,17.009,17.009,0,0,1-1.1,2.5,9.626,9.626,0,0,1-1.692,2.16,4.91,4.91,0,0,1-5.312,1.355,5.477,5.477,0,0,1-1.747-1.041,8.447,8.447,0,0,1-1.355-1.51A14,14,0,0,1,6.6,20.519,24.079,24.079,0,0,1,5.659,17.6v-.1a2.794,2.794,0,0,0,1.46.468,4.154,4.154,0,0,0,1.692-.259,5.268,5.268,0,0,0,1.587-.887,4.689,4.689,0,0,0,1.1-1.46A.76.76,0,0,1,11.758,15a.871.871,0,0,1,.391-.077h.391a2.094,2.094,0,0,1,.937.182,1.736,1.736,0,0,1,.678.727,4.226,4.226,0,0,0,2.028,1.8M9.45,20.7v.077a8.816,8.816,0,0,0,1.873,1.653,2.54,2.54,0,0,0,2.705.05,6.061,6.061,0,0,0,1.824-1.565,9.593,9.593,0,0,0-2.314.132A5.6,5.6,0,0,1,9.681,20.5a.149.149,0,0,0-.1.05.077.077,0,0,0-.05,0h0l-.05.1Z" transform="translate(0)" fill="#fff"/></g></g></g></svg>