<svg xmlns="http://www.w3.org/2000/svg" xmlns:xlink="http://www.w3.org/1999/xlink" width="54.55" height="54.55" viewBox="0 0 54.55 54.55"><defs><linearGradient id="a" x1="0.5" x2="0.5" y2="1" gradientUnits="objectBoundingBox"><stop offset="0" stop-color="#ff2c32"/><stop offset="1" stop-color="#d81f0c"/></linearGradient><filter id="b" x="0" y="0" width="54.55" height="54.55" filterUnits="userSpaceOnUse"><feOffset dy="2" input="SourceAlpha"/><feGaussianBlur stdDeviation="3" result="c"/><feFlood flood-color="#dbe3ff"/><feComposite operator="in" in2="c"/><feComposite in="SourceGraphic"/></filter></defs><g transform="translate(-770 -2616.774)"><g transform="translate(625.5 2321.774)"><g transform="matrix(1, 0, 0, 1, 144.5, 295)" filter="url(#b)"><path d="M9.4,0H27.151a9.4,9.4,0,0,1,9.4,9.4V27.151a9.4,9.4,0,0,1-9.4,9.4H9.4a9.4,9.4,0,0,1-9.4-9.4V9.4A9.4,9.4,0,0,1,9.4,0Z" transform="translate(9 7)" fill="url(#a)"/></g></g><g transform="translate(784 2628.452)"><g transform="translate(0 0.322)"><path d="M30.643,41.058a1.137,1.137,0,0,1-1.548.021.4.4,0,0,0-.558.586,1.847,1.847,0,0,0,1.284.517,2.116,2.116,0,0,0,1.333-.5.4.4,0,1,0-.511-.628Z" transform="translate(-16.914 -24.519)" fill="#fff"/><path d="M19.927,17.154c.014-.013.031-.024.045-.037a2.781,2.781,0,0,0,.314-3.6A2.776,2.776,0,0,0,20.8,11.9a2.508,2.508,0,0,0-1.444-2.387,1.485,1.485,0,0,0,.362-.965V7.47a1.5,1.5,0,0,0-1.5-1.5h-.162c-.189-1.061.187-1.655,1.314-2.04a2.065,2.065,0,1,0,1.9-2.873,2.044,2.044,0,0,0-1.424.581A8.392,8.392,0,0,0,12.926.694,9.357,9.357,0,0,0,7.385,5.977,1.5,1.5,0,0,0,5.923,7.47V8.551A1.489,1.489,0,0,0,6.4,9.639a2.7,2.7,0,0,0-.954,1.16A2.773,2.773,0,0,0,5.8,13.618a2.181,2.181,0,0,0-.5,1.626,2.708,2.708,0,0,0,.7,1.715C3.278,17.589,0,20.8,0,25.555a.4.4,0,0,0,.4.4H25.493a.4.4,0,0,0,.4-.414C25.791,21,22.939,17.919,19.927,17.154ZM21.28,1.87a1.268,1.268,0,1,1-1.253,1.267A1.261,1.261,0,0,1,21.28,1.87Zm-8.109-.4a7.594,7.594,0,0,1,6.219.839s0,0,0,.007a2.074,2.074,0,0,0-.172.821h0c-1.52.5-2.171,1.434-1.978,2.841H8.276A8.46,8.46,0,0,1,13.172,1.465ZM6.733,7.47a.688.688,0,0,1,.688-.688h10.8a.688.688,0,0,1,.686.688V8.551a.688.688,0,0,1-.686.688H7.42a.689.689,0,0,1-.688-.688V7.47Zm11.133,5.038A1.679,1.679,0,0,1,16.2,14.083a7.993,7.993,0,0,1-1.662-.245,7.625,7.625,0,0,0-1.608-.24,7.573,7.573,0,0,0-1.468.21c-.376.078-.765.158-1.13.2a1.711,1.711,0,0,1-2.025-1.318,2.488,2.488,0,0,1,.787-2.638h7.832A2.324,2.324,0,0,1,17.866,12.508ZM12.538,25.15H.818c.2-4.777,3.962-7.406,6.009-7.49a2.668,2.668,0,0,0,.864.329c.224,2.1,2.18,3.612,4.848,3.752V25.15Zm-4.06-7.535a.4.4,0,0,0-.4-.4A2.233,2.233,0,0,1,6.1,15.244a1.441,1.441,0,0,1,.486-1.3l.039-.042a.4.4,0,0,0,0-.551,2.028,2.028,0,0,1-.441-2.231,1.7,1.7,0,0,1,1.473-1.074h.286a3.7,3.7,0,0,0-.421,2.845,2.506,2.506,0,0,0,2.89,1.917,12.251,12.251,0,0,0,1.211-.209,7.068,7.068,0,0,1,1.3-.193,6.953,6.953,0,0,1,1.432.221,8.361,8.361,0,0,0,1.819.264H16.2a2.451,2.451,0,0,0,2.462-2.261,3.78,3.78,0,0,0-.526-2.582A1.759,1.759,0,0,1,19.994,11.9a1.969,1.969,0,0,1-.526,1.341.4.4,0,0,0,0,.549A1.972,1.972,0,0,1,19.4,16.54a1.937,1.937,0,0,1-1.368.565H18a.4.4,0,0,0-.4.389c-.073,1.935-2.118,3.451-4.656,3.451C10.377,20.946,8.5,19.545,8.479,17.616Zm4.869,7.535V21.74c2.632-.151,4.733-1.759,5.027-3.846a2.724,2.724,0,0,0,.477-.106c2.9.225,5.938,3.007,6.218,7.362Z" transform="translate(0 -0.322)" fill="#fff"/><path d="M23.625,27.341a.4.4,0,0,0,.559.586,1.136,1.136,0,0,1,1.548.021.4.4,0,1,0,.511-.628A1.94,1.94,0,0,0,23.625,27.341Z" transform="translate(-13.99 -16.1)" fill="#fff"/><path d="M37,26.821a1.62,1.62,0,0,0-1.127.522.4.4,0,0,0,.564.581.842.842,0,0,1,.547-.293.745.745,0,0,1,.487.281.4.4,0,0,0,.587-.557A1.506,1.506,0,0,0,37,26.821Z" transform="translate(-21.286 -16.098)" fill="#fff"/><path d="M37.725,56.014h-.013a.4.4,0,0,0-.4.4.41.41,0,0,0,.411.4.4.4,0,1,0,0-.809Z" transform="translate(-22.214 -33.478)" fill="#fff"/></g></g></g></svg>