<svg xmlns="http://www.w3.org/2000/svg" xmlns:xlink="http://www.w3.org/1999/xlink" width="54.55" height="54.55" viewBox="0 0 54.55 54.55"><defs><linearGradient id="a" x1="0.5" x2="0.5" y2="1" gradientUnits="objectBoundingBox"><stop offset="0" stop-color="#ff2c32"/><stop offset="1" stop-color="#d81f0c"/></linearGradient><filter id="b" x="0" y="0" width="54.55" height="54.55" filterUnits="userSpaceOnUse"><feOffset dy="2" input="SourceAlpha"/><feGaussianBlur stdDeviation="3" result="c"/><feFlood flood-color="#dbe3ff"/><feComposite operator="in" in2="c"/><feComposite in="SourceGraphic"/></filter></defs><g transform="translate(-549 -2615)"><g transform="translate(404.5 2320)"><g transform="matrix(1, 0, 0, 1, 144.5, 295)" filter="url(#b)"><path d="M9.4,0H27.151a9.4,9.4,0,0,1,9.4,9.4V27.151a9.4,9.4,0,0,1-9.4,9.4H9.4a9.4,9.4,0,0,1-9.4-9.4V9.4A9.4,9.4,0,0,1,9.4,0Z" transform="translate(9 7)" fill="url(#a)"/></g></g><g transform="translate(563.83 2627.605)"><g transform="translate(0.17 1.394)"><path d="M5.08-.031A1.176,1.176,0,0,0,4.067.476a.669.669,0,0,0,.036.85Q3.385,1.394,3.5.557a2.713,2.713,0,0,0-1.117.968,4.3,4.3,0,0,0-.393.954,3.278,3.278,0,0,0-.068.859q.023.452.231,1.885A3.59,3.59,0,0,0,3.593,7.6a3.133,3.133,0,0,0,1.628.651A3.26,3.26,0,0,0,6.893,8.04,3.481,3.481,0,0,0,8.25,7.063,3.4,3.4,0,0,0,9,5.458q.045-.393.095-1,.023-.719.068-1.117-.023-.208-.045-.348A2.03,2.03,0,0,0,9,2.483a2.993,2.993,0,0,0-.231-.606A5,5,0,0,0,7.6.693,3.355,3.355,0,0,0,5.08-.031m3.142,4.35a2.957,2.957,0,0,1-.185,1.56,2.568,2.568,0,0,1-.954,1.185A2.622,2.622,0,0,1,5.6,7.457a2.356,2.356,0,0,1-1.442-.606A2.921,2.921,0,0,1,3.195,5.4q-.258-.9-.095-.931a2.044,2.044,0,0,0,.3.045q.118,0,.348.023.045,0,.511-.095Q4.357,3.342,5.1,3.2a1.212,1.212,0,0,0,0,1.4l.045.068Q6.586,2.085,7.608,2.994a2.111,2.111,0,0,1,.606,1.356M20.272.756A4.345,4.345,0,0,0,17.035.363a2.808,2.808,0,0,0-2.071,1.809,4.725,4.725,0,0,0-.3,1.044q-.068.348-.185,1.044a.321.321,0,0,1-.068.163.543.543,0,0,1-.14.095l-.628.208q-.348.14-.606.258a2.261,2.261,0,0,0-.954,1.022,2.016,2.016,0,0,0-.163,1.356,1.619,1.619,0,0,0,.583.9,1.542,1.542,0,0,0,.977.348,4.422,4.422,0,0,1,.14-1.723,3.617,3.617,0,0,1,.85-1.528A4.521,4.521,0,0,0,15.823,7.71a3.441,3.441,0,0,0,1.356.769q-.859.28-.954.326a.9.9,0,0,0-.163.118q-.208.231-.488.583l-.452.583-2.514,3.025a1.035,1.035,0,0,0-.746-.14,3.03,3.03,0,0,1-.326.118l-1.325-1.65Q8.638,9.573,8.137,9.012a.416.416,0,0,0-.118-.118,6.782,6.782,0,0,0-1.212-.28,5.34,5.34,0,0,0-2.161.023,9.567,9.567,0,0,0-1.117.28.294.294,0,0,0-.14.068q-.61.678-1.659,1.836Q.776,11.874.31,12.362q-.371.3-.3.534-.09,1.117,1.347.864l1.809-1.582v5.349a.561.561,0,0,0,.023.231.425.425,0,0,0,.258.045h.371v4.255q-.258.023-.393.023v.452h2V17.806h.719v4.77H7.951q.14,0,.163-.068a.312.312,0,0,0,.023-.163.384.384,0,0,0-.023-.185q-.023-.095-.163-.068a.226.226,0,0,1-.208-.045.271.271,0,0,1-.045-.185V18.014l.023-.208h.556q.14.023.185-.045a.54.54,0,0,0,.068-.208q-.023-.836-.023-4.973a2.02,2.02,0,0,1,.023-.258.068.068,0,0,1,.045.023h.014q.371.42,1.162,1.207.7.719,1.162,1.234l.023.023a1.171,1.171,0,0,0,.452.674.954.954,0,0,0,.534.208,1,1,0,0,0,.556-.068.981.981,0,0,0,.452-.326,1.1,1.1,0,0,0,.231-.511.769.769,0,0,0,.023-.185q.628-.746,2.139-2.464.14-.14.651-.719.14,1.207.163,1.325a.534.534,0,0,1-.045.185l-2.419,4.114-.371.674h3.047a.271.271,0,0,1,.185.045.208.208,0,0,1,.068.185V21.97l-.452.045v.452H18.1V18.222q0-.371.068-.42a1.2,1.2,0,0,1,.452-.068.185.185,0,0,1,.231.231v4.521h1.953v-.452l-.118-.023q-.231,0-.258-.045a.711.711,0,0,1-.045-.231V17.969a.185.185,0,0,1,.231-.231h2.071l.231-.023a.732.732,0,0,1-.068-.163q-.719-1.42-1.094-2.116L20.661,13.3a1.741,1.741,0,0,1-.185-.488,1.42,1.42,0,0,1,0-.511q.023-.231.045-.556t.023-.556q.208.231.452.511.14.185.42.534.791,1.072,1.185,1.582a.787.787,0,0,0,.836.068.661.661,0,0,0,.326-.931l-.452-.7q-1.356-1.809-2.442-3.328a.366.366,0,0,0-.14-.095q-.068-.045-.977-.371A3.667,3.667,0,0,0,20.8,7.922a4.729,4.729,0,0,0,1.488-2.261,5.177,5.177,0,0,1,.583,1.42,4.309,4.309,0,0,1,.14,1.537,2.017,2.017,0,0,0,.28-.023,1.1,1.1,0,0,0,.258-.023,3.029,3.029,0,0,0,.719-.231,1.243,1.243,0,0,0,.511-.583q.068-.208.118-.326V6.941a33894.394,33894.394,0,0,0-.045-.136,3.3,3.3,0,0,0-1.022-1.673,3.029,3.029,0,0,0-1.28-.719.294.294,0,0,1-.14-.068.19.19,0,0,1-.045-.14q-.023-.118-.045-.28a1.04,1.04,0,0,0-.045-.258,3.97,3.97,0,0,0-2-2.907m-2.234,3.02a1.809,1.809,0,0,0,.208-.3l.231-.3v.977a.728.728,0,0,0,.068.42q.045.068.393.045.452,0,1.049-.023l1.022-.068a.452.452,0,0,1,.208.023.316.316,0,0,1,.045.208,2.826,2.826,0,0,1-.511,1.582,3.038,3.038,0,0,1-1.4,1.044,2.713,2.713,0,0,1-1.582.095A2.894,2.894,0,0,1,15.561,4.92a.208.208,0,0,1,0-.14.212.212,0,0,1,.118-.118,1.727,1.727,0,0,0,.452-.393,4.973,4.973,0,0,0,.3-.511.543.543,0,0,0,.095-.14s0-.032.045-.045a1.1,1.1,0,0,1,.231.452,1.931,1.931,0,0,1,.068.488q.023.095.068.258a.4.4,0,0,1,.163-.023q.118-.023.14-.068A11.007,11.007,0,0,0,18.038,3.781Z" transform="translate(0.003 0.056)" fill="#fff"/></g></g></g></svg>