<svg xmlns="http://www.w3.org/2000/svg" width="27.979" height="21.782" viewBox="0 0 27.979 21.782"><g transform="translate(0 0.002)"><g transform="translate(0 -0.002)"><path d="M2.377,16.928q1.376,2.264,2.913,1.742a10.3,10.3,0,0,1,5.09-6.1L9.98,10.8a15.822,15.822,0,0,0-7.6,6.1m8.974-5.9.244.157a6.806,6.806,0,0,0,3.157,1.4,3.753,3.753,0,0,0,2.312-.309q.91-.466.91-1.132a1.306,1.306,0,0,0-.536-1.093,3.2,3.2,0,0,0-1.424-.6,5.034,5.034,0,0,0-2.377.357,7.4,7.4,0,0,0-2.29,1.224m4.6-.435a.509.509,0,0,1,.135.379.562.562,0,0,1-.135.379.592.592,0,0,1-.4.157.531.531,0,0,1-.527-.544.47.47,0,0,1,.157-.379.483.483,0,0,1,.379-.179.553.553,0,0,1,.4.179m-5.909.065h-.035V8.751Q3.222,9.143,0,11.951a19.43,19.43,0,0,0,.557,2.09,10.238,10.238,0,0,0,.84.762q2.887-3.484,8.643-4.176m13.224-3.1a8.874,8.874,0,0,1,4.711,2.735q.065-5.042-2.491-7.6A8.683,8.683,0,0,0,19.09,0a8.709,8.709,0,0,0-6.4,2.665,8.635,8.635,0,0,0-2.643,6.1q.435-.109,3.135-.71t4.934-.91a14.3,14.3,0,0,1,5.156.4m-3.827,14.23q3.71-.179,6.222-4.267a21.214,21.214,0,0,0,2.312-5.661A6.71,6.71,0,0,1,26.6,12.6a16,16,0,0,1-5.421,1.11,3.64,3.64,0,0,1-1.742,1.154q-.954.257-2.334-1.089a8.709,8.709,0,0,1-4.476-.087,14.683,14.683,0,0,1-2.068-.753,18.676,18.676,0,0,0,2.33,4.751q2.822,4.289,6.553,4.089M20.749,9.709a1.346,1.346,0,0,0-.509,1.089q0,.666.91,1.132a3.784,3.784,0,0,0,2.29.335,7.22,7.22,0,0,0,3.179-1.4,1.99,1.99,0,0,1,.244-.179,6.967,6.967,0,0,0-2.29-1.2,4.685,4.685,0,0,0-2.395-.344,3.148,3.148,0,0,0-1.446.579m1.446.466a.592.592,0,0,1,.4-.157.531.531,0,0,1,.531.531.47.47,0,0,1-.157.379.514.514,0,0,1-.379.157.592.592,0,0,1-.4-.157.509.509,0,0,1-.135-.379.562.562,0,0,1,.139-.388Z" transform="translate(0 0.002)" fill="#060f1a"/><path d="M35.56,23.914a.509.509,0,0,0-.135-.379.553.553,0,0,0-.4-.179.483.483,0,0,0-.379.179.47.47,0,0,0-.157.379.531.531,0,0,0,.531.531.592.592,0,0,0,.4-.157.562.562,0,0,0,.135-.379M42.048,23a.592.592,0,0,0-.4.157.562.562,0,0,0-.135.379.509.509,0,0,0,.135.379.592.592,0,0,0,.4.157.514.514,0,0,0,.379-.157.47.47,0,0,0,.157-.379A.531.531,0,0,0,42.048,23Z" transform="translate(-19.471 -12.984)" fill="#060f1a"/></g></g></svg>