<svg xmlns="http://www.w3.org/2000/svg" width="26.47" height="26.47" viewBox="0 0 26.47 26.47"><g transform="translate(1.584 1.584)"><g transform="translate(-1.584 -1.584)"><g transform="translate(0)"><path d="M0,13.232a12.7,12.7,0,0,0,3.859,9.343,12.783,12.783,0,0,0,9.375,3.891,12.7,12.7,0,0,0,9.343-3.891,12.7,12.7,0,0,0,3.891-9.343,12.783,12.783,0,0,0-3.891-9.375A12.7,12.7,0,0,0,13.232,0,12.831,12.831,0,0,0,3.857,3.857,12.831,12.831,0,0,0,0,13.232m5.643,7.559a10.3,10.3,0,0,1-3.134-7.559A10.4,10.4,0,0,1,5.641,5.641a10.4,10.4,0,0,1,7.591-3.134,10.3,10.3,0,0,1,7.559,3.134,10.348,10.348,0,0,1,3.176,7.591,10.248,10.248,0,0,1-3.176,7.559q-.169.2-.376.408v-.026a10.243,10.243,0,0,1-7.183,2.784A10.348,10.348,0,0,1,5.641,20.78M7.335,4.693,10.056,14.82l10.359,6.352-4.9-10.793L7.335,4.7m6.585,6.881a1.472,1.472,0,0,1-1.059,2.509,1.45,1.45,0,0,1-1.059-.439,1.519,1.519,0,0,1,0-2.07,1.45,1.45,0,0,1,1.059-.439,1.413,1.413,0,0,1,1.059.455Z" transform="translate(0.004 0.004)" fill="#060f1a"/></g></g></g></svg>