<svg xmlns="http://www.w3.org/2000/svg" width="20.303" height="29.4" viewBox="0 0 20.303 29.4"><g transform="translate(0)"><path d="M25.442,9.473v14.7a.98.98,0,0,0,.98.98h4.9a.98.98,0,0,0,.98-.98V9.473a.98.98,0,0,0-.98-.98h-4.9A.98.98,0,0,0,25.442,9.473ZM17,2.245a4.55,4.55,0,0,0-4.052,2.009c-3.03,4.736,2.083,16.359,2.683,17.683l-.407,7.722a1.885,1.885,0,1,0,3.765,0l-.407-7.722c.6-1.323,5.713-12.947,2.683-17.683a4.555,4.555,0,0,0-4.052-2.009c-.037,0-.073,0-.106,0S17.042,2.242,17,2.245Zm1.084,18.372c.508-3.8,1.7-13.957.378-17.233a3.194,3.194,0,0,1,1.977,1.4C22.817,8.49,19.365,17.565,18.088,20.617ZM15.756,3.384c-1.32,3.276-.13,13.436.378,17.233C14.86,17.565,11.405,8.49,13.779,4.781a3.194,3.194,0,0,1,1.977-1.4Zm1.124-.03c.116-.134.2-.134.231-.134s.116,0,.231.134c1.353,1.565.647,10.706-.231,17.188C16.232,14.06,15.527,4.919,16.88,3.354Zm11.993-.741A1.353,1.353,0,0,1,30.22,4.078l-.286,3.435H27.81l-.286-3.435a1.353,1.353,0,0,1,1.348-1.465ZM27.524,29.57l.286-3.435h2.124l.286,3.435a1.353,1.353,0,1,1-2.7,0Z" transform="translate(-12 -2.24)" fill="#060f1a"/></g></svg>