<svg xmlns="http://www.w3.org/2000/svg" viewBox="0 0 40.45 49.99"><title>Barbie</title><g id="Layer_2" data-name="Layer 2"><g id="Layer_1-2" data-name="Layer 1"><g id="Layer0_6_FILL" data-name="Layer0 6 FILL"><path d="M5.85,5.41a4.5,4.5,0,0,0-2,.58A18.66,18.66,0,0,0,2.13,7.11,4.4,4.4,0,0,0,.37,9.88a2.57,2.57,0,0,0,1.49,2.87A.67.67,0,0,1,2,13q.11.16.05.21A1.69,1.69,0,0,0,2,14.34a9.26,9.26,0,0,0,.27,1.12q.11.32.43,1.54l-.16.16-1.44-.64L1,16.73a6.08,6.08,0,0,1,.58.53,4.92,4.92,0,0,0,.64.48q.43.21.43.37t-.32.48a21.13,21.13,0,0,1-2,1.33.62.62,0,0,0-.37.43,1,1,0,0,0,.16.53,2.74,2.74,0,0,0,.53.58l1.38,1.06q-1,.85-1,1.43t1.38,1.12q-.69.64-.64,1.12t.9.9a.8.8,0,0,1,.48.48,1.15,1.15,0,0,1,.05.64,1.73,1.73,0,0,0,.27,1.54,1.62,1.62,0,0,0,1.44.53,14.81,14.81,0,0,0,5.47-1.12A2,2,0,0,1,11.75,29a1.65,1.65,0,0,1,.85,1,13.74,13.74,0,0,1,1.54,5.37,18.37,18.37,0,0,1-.58,5.58,13.81,13.81,0,0,1-3.88,6.64l-.9.85a2.07,2.07,0,0,0-.48,1.12l.27.11a10.21,10.21,0,0,0,4.36.32q1.28-.16,1.54-.21a4.17,4.17,0,0,0,1.44-.58,20.78,20.78,0,0,0,2.23-1.7q.9-.8,2.07-1.91a21.69,21.69,0,0,1,2.34-2,6.87,6.87,0,0,1,3-1.06l.85-.16.85-.21a1.61,1.61,0,0,0,0-1,1.35,1.35,0,0,0-.8-.64,1.48,1.48,0,0,1-.53-.32,13.08,13.08,0,0,1-3-3.93,14.22,14.22,0,0,1-1.54-8.5,6,6,0,0,1,.53-1.81,4.56,4.56,0,0,1,1.17-1.54q.58-.53,1.81-1.54A7.85,7.85,0,0,0,26.47,21l1.17-1.54a8.82,8.82,0,0,0,1-1.59,10.84,10.84,0,0,0,.9-3.61,16.66,16.66,0,0,0-.11-3.72,14.6,14.6,0,0,0-.37-1.65q-.32-1.12-.48-1.7a3.38,3.38,0,0,0,.48.11l.48.11a5.3,5.3,0,0,1,2.23,2.55,4.53,4.53,0,0,1,.32,3.29,25.82,25.82,0,0,1-1.81,4.3q-.37.8-1.17,2.28a11.78,11.78,0,0,0-.8,2.39,6.37,6.37,0,0,0,.48,4A5.34,5.34,0,0,0,31.2,29a9.42,9.42,0,0,0,2.66.9,5.21,5.21,0,0,0,2.23-.05A3.45,3.45,0,0,0,38,28.74a15.8,15.8,0,0,0,1.12-1.28q.37-.43,1.06-1.38l-.74-.9a1.72,1.72,0,0,0-.48.27,3.76,3.76,0,0,1-.48.16q-.58.16-.9.21a2.47,2.47,0,0,1-.85.05,1.77,1.77,0,0,1-1.49-1.38,2.68,2.68,0,0,1,.27-2q.53-.9,1.44-2.39l1.44-2.44a15.67,15.67,0,0,0,1.54-3.4,10.9,10.9,0,0,0,.53-3.61q-.37-7-6-9.67a7.8,7.8,0,0,0-7.39,0q-.53.32-1.22.8t-1.22.85a5.26,5.26,0,0,1-.43-.37,5.19,5.19,0,0,0-.53-.32A14.11,14.11,0,0,0,14.51.15,13.65,13.65,0,0,0,9.51,2Q8,2.86,7.6,3.18A3.51,3.51,0,0,0,6.38,5a.6.6,0,0,1-.21.21A.65.65,0,0,1,5.85,5.41Z"/></g></g></g></svg>