<svg xmlns="http://www.w3.org/2000/svg" width="24.491" height="24.011" viewBox="0 0 24.491 24.011"><g transform="translate(-12.75 -13.5)"><path d="M60.294,52.3a.5.5,0,0,1,.353.146l1.129,1.126a.5.5,0,0,1,0,.708l-6.768,6.763a.5.5,0,0,1-.707,0l-1.128-1.127a.5.5,0,0,1,0-.707l6.767-6.763A.5.5,0,0,1,60.294,52.3Zm.421,1.627-.421-.42-6.06,6.056.42.42Z" transform="translate(-27.404 -26.398)" fill="#060f1a"/><path d="M69.754,71.107a2.078,2.078,0,0,1-1.481-.614l-4.511-4.507a.5.5,0,0,1,0-.707l2.255-2.255a.5.5,0,0,1,.707,0l4.511,4.509a2.095,2.095,0,0,1-1.481,3.576Zm-4.931-5.476,4.158,4.154a1.094,1.094,0,1,0,1.548-1.547l-4.158-4.155Z" transform="translate(-34.608 -33.595)" fill="#060f1a"/><path d="M0-.5H3.188a.5.5,0,0,1,.5.5V6.379a.5.5,0,0,1-.5.5H0a.5.5,0,0,1-.5-.5V0A.5.5,0,0,1,0-.5ZM2.688.5H.5V5.879H2.688Z" transform="translate(27.251 32.034) rotate(-134.988)" fill="#060f1a"/><path d="M21.48,25.772a.5.5,0,0,1-.353-.146l-6.768-6.763a.5.5,0,0,1-.147-.354V14a.5.5,0,0,1,.5-.5h4.511a.5.5,0,0,1,.353.146l6.767,6.763a.5.5,0,0,1,0,.707l-4.511,4.509A.5.5,0,0,1,21.48,25.772ZM15.212,18.3l6.268,6.263,3.8-3.8L19.017,14.5h-3.8Z" transform="translate(-0.995 0)" fill="#060f1a"/><path d="M33.34,32.536a.5.5,0,0,1-.353-.146l-4.511-4.51a.5.5,0,0,1,0-.707L42.008,13.646a.5.5,0,0,1,.353-.146h4.512a.5.5,0,0,1,.5.5v4.508a.5.5,0,0,1-.147.354L33.694,32.389A.5.5,0,0,1,33.34,32.536Zm-3.8-5.01,3.8,3.8L46.373,18.3V14.5H42.569Z" transform="translate(-10.6 0)" fill="#060f1a"/><path d="M28.539,61.187a.5.5,0,0,1-.353-.146l-6.767-6.763a.5.5,0,0,1,0-.707l1.128-1.126a.5.5,0,0,1,.707,0l6.768,6.763a.5.5,0,0,1,0,.708l-1.129,1.127A.5.5,0,0,1,28.539,61.187Zm-6.059-7.263,6.059,6.056.421-.42L22.9,53.5Z" transform="translate(-5.798 -26.398)" fill="#060f1a"/><path d="M51.676,13.5a.5.5,0,0,1,.353.854L36.241,30.134a.5.5,0,0,1-.707-.707L51.323,13.646A.5.5,0,0,1,51.676,13.5Z" transform="translate(-15.403 0)" fill="#060f1a"/><path d="M14.845,71.107a2.094,2.094,0,0,1-1.482-3.575l4.512-4.509a.5.5,0,0,1,.707,0l2.256,2.255a.5.5,0,0,1,0,.707l-4.511,4.508A2.083,2.083,0,0,1,14.845,71.107Zm3.384-7.024-4.158,4.155a1.095,1.095,0,0,0,1.549,1.547l4.157-4.154Z" transform="translate(0 -33.595)" fill="#060f1a"/><path d="M57.056,55.822a.5.5,0,0,1,.353.146l2.256,2.254a.5.5,0,0,1-.707.707L56.7,56.676a.5.5,0,0,1,.353-.854Z" transform="translate(-29.805 -28.796)" fill="#060f1a"/><path d="M23.735,23.518a.5.5,0,0,1-.353-.146l-9.023-9.018a.5.5,0,1,1,.707-.707l9.023,9.018a.5.5,0,0,1-.353.854Z" transform="translate(-0.995 0)" fill="#060f1a"/></g></svg>