<svg xmlns="http://www.w3.org/2000/svg" width="28.163" height="24.98" viewBox="0 0 28.163 24.98"><g transform="translate(287.895 8.938)"><g transform="translate(-287.895 -8.938)"><g transform="translate(0 9.96)"><path d="M-225.565-2.278a1.247,1.247,0,0,1-1.247-1.247,1.247,1.247,0,0,1,1.247-1.247,1.247,1.247,0,0,1,1.247,1.247A1.247,1.247,0,0,1-225.565-2.278Z" transform="translate(230.52 4.772)" fill="#060f1a"/><path d="M-294.308,6.355l-.008,9.521a.7.7,0,1,1-1.4-.022V10.315l-.273,0v5.539a.709.709,0,1,1-1.417.024V6.315l-1,.865-2.364-4.139c-.407-.712.54-1.553,1.021-.908l1.557,2.088c.6.805.252.843.961.192h2.218a1.394,1.394,0,0,1,1.228.666l1.353-1.305.852-1.038c.5-.6,1.474.509.995,1.052l-1.322,1.5c-.116.132-1.254,2.01-1.377,1.827Z" transform="translate(300.865 -1.568)" fill="#060f1a"/></g><g transform="translate(6.927 0)"><path d="M140.9,4.148a2.074,2.074,0,1,0-2.074-2.074A2.074,2.074,0,0,0,140.9,4.148Z" transform="translate(-124.411)" fill="#060f1a"/><path d="M55.388,60.056,55.4,75.891a1.165,1.165,0,1,0,2.329-.036V66.642l.453,0V75.85a1.179,1.179,0,1,0,2.356.041v-15.9h.409v5.679a.929.929,0,1,0,1.85.024V59.48a2.54,2.54,0,0,0-2.557-2.653H56.555a2.318,2.318,0,0,0-2.043,1.108l-1.867,2.72H49.406a.923.923,0,1,0-.024,1.846h3.733a1.014,1.014,0,0,0,.852-.414l1.421-2.032Z" transform="translate(-41.565 -52.095)" fill="#060f1a"/><path d="M-26.966,64.309c-.9.68-.8,1.332-.134,1.969.327.311,1.488.246,1.488.246l-.135.88H-28.32l-.02-3.749-1.4-.04v-.947l-4.478.011-.067-1.783,8.628.1-.18,3.162A2.094,2.094,0,0,0-26.966,64.309Z" transform="translate(34.285 -55.824)" fill="#060f1a" fill-rule="evenodd"/></g></g></g></svg>