<svg xmlns="http://www.w3.org/2000/svg" viewBox="0 0 41.95 50"><title>Boys Games</title><g id="Layer_2" data-name="Layer 2"><g id="Layer_1-2" data-name="Layer 1"><g id="Layer0_13_FILL" data-name="Layer0 13 FILL"><path d="M2.41,19.71l2.93,1L2.88,22.87a8.75,8.75,0,0,0,.9.85q.52.52.9.85A1,1,0,0,1,5,25a.65.65,0,0,1-.09.57,7.13,7.13,0,0,0-.28,4.87,10.33,10.33,0,0,0,1.23,2.79A19.84,19.84,0,0,0,7.7,35.68q.14.14.43.47a2.48,2.48,0,0,1,.38.47q.24.43.85,1.65.52,1,.9,1.61a32.56,32.56,0,0,0,3.26,4.44,20.53,20.53,0,0,0,4.11,3.73,12.26,12.26,0,0,0,2.79,1.42,9.52,9.52,0,0,0,3.12.52,11.78,11.78,0,0,0,7.18-3,23.23,23.23,0,0,0,7.09-10.16,2.38,2.38,0,0,1,.33-.61l.38-.57q.09-.14,1.13-1.51.66-.9,1-1.51a7.74,7.74,0,0,0,.76-6.81,1.51,1.51,0,0,1,0-.76,20,20,0,0,0-.9-12,27.78,27.78,0,0,0-4.3-7.23A34.88,34.88,0,0,0,30,.24,2.83,2.83,0,0,0,29.57,0l1.18,3.69a22.43,22.43,0,0,0-6.33-2,26.28,26.28,0,0,0-6.52-.14A37.86,37.86,0,0,0,8.83,3.69,48.35,48.35,0,0,0,.38,7.8l-.14.14A.69.69,0,0,1,0,8.08l5,4.06L.33,16.54l4.3,1.09L2.41,19.71m6.61,4q0-.57,0-.8a5.2,5.2,0,0,1,0-.8,2.73,2.73,0,0,1,.8-1.18,1.21,1.21,0,0,0,.38-.61,1,1,0,0,0-.19-.66A4.15,4.15,0,0,1,9.59,19l-.43-.9q3.17.8,4.49,1a14.35,14.35,0,0,0,4.49,0,19.41,19.41,0,0,0,4.3-1.18,23.65,23.65,0,0,0,4.11-2l-.57,3,8-2.69-.33,4.35,3.64-.76V24.2l-.19,0a2.72,2.72,0,0,0-1.28-1.37,3.84,3.84,0,0,0-1.89-.33q-2.22.09-3.45.24a22.45,22.45,0,0,0-3.35.57,11.44,11.44,0,0,0-1.51.57A2.75,2.75,0,0,0,24.42,25a.55.55,0,0,1-.14.09.42.42,0,0,1-.19,0A19.8,19.8,0,0,1,22,25a.43.43,0,0,1-.38-.14,3.63,3.63,0,0,0-1.46-1.28,6.16,6.16,0,0,0-1.8-.47q-1.46-.19-3.45-.38l-3.45-.24a2.42,2.42,0,0,0-2.27,1.32L9,23.72m20.31,8.22a6.73,6.73,0,0,0,4.63.57,4.7,4.7,0,0,0,1.13-.43l1.18-.57q-.24.71-.61,2.13T35,35.77a30.87,30.87,0,0,1-2,4.54,17.47,17.47,0,0,1-3.07,3.92q-4.39,4.25-9.64,2.46a9.94,9.94,0,0,1-3.17-1.89,15.33,15.33,0,0,1-2.46-2.74,25.4,25.4,0,0,1-2.69-4.82,43.7,43.7,0,0,1-1.7-5.29v-.19a5.07,5.07,0,0,0,2.65.85,7.54,7.54,0,0,0,3.07-.47,9.56,9.56,0,0,0,2.88-1.61,8.51,8.51,0,0,0,2-2.65,1.38,1.38,0,0,1,.47-.66,1.58,1.58,0,0,1,.71-.14q.24,0,.71,0a3.8,3.8,0,0,1,1.7.33,3.15,3.15,0,0,1,1.23,1.32,7.67,7.67,0,0,0,3.68,3.26M17.15,37.57v.14a16,16,0,0,0,3.4,3,4.61,4.61,0,0,0,4.91.09,11,11,0,0,0,3.31-2.84,17.41,17.41,0,0,0-4.2.24,10.16,10.16,0,0,1-7-1,.27.27,0,0,0-.19.09.14.14,0,0,0-.09,0,0,0,0,0,0,0,0,288.53,288.53,0,0,0-.09.19Z"/></g></g></g></svg>