<svg xmlns="http://www.w3.org/2000/svg" width="24.969" height="29.762" viewBox="0 0 24.969 29.762"><g transform="translate(0)"><path d="M1.435,11.734l1.744.6L1.715,13.616a5.209,5.209,0,0,0,.536.506q.31.31.536.506a.6.6,0,0,1,.191.256.387.387,0,0,1-.054.339,4.245,4.245,0,0,0-.167,2.9,6.15,6.15,0,0,0,.732,1.661,11.812,11.812,0,0,0,1.1,1.459q.083.083.256.28a1.476,1.476,0,0,1,.226.28q.143.256.506.982.31.6.536.959a19.385,19.385,0,0,0,1.941,2.643A12.223,12.223,0,0,0,10.5,28.607a7.3,7.3,0,0,0,1.661.845,5.668,5.668,0,0,0,1.858.31,7.013,7.013,0,0,0,4.275-1.786,13.83,13.83,0,0,0,4.221-6.049,1.417,1.417,0,0,1,.2-.363l.226-.339q.054-.083.673-.9a9.039,9.039,0,0,0,.6-.9,4.608,4.608,0,0,0,.452-4.054.9.9,0,0,1,0-.452,11.907,11.907,0,0,0-.536-7.144,16.539,16.539,0,0,0-2.56-4.3,20.766,20.766,0,0,0-3.7-3.328A1.685,1.685,0,0,0,17.6,0l.7,2.2a13.354,13.354,0,0,0-3.769-1.191A15.646,15.646,0,0,0,10.657.923,22.54,22.54,0,0,0,5.257,2.2,28.785,28.785,0,0,0,.226,4.644l-.083.083A.411.411,0,0,1,0,4.81L2.977,7.228.2,9.847l2.56.649L1.435,11.734M5.37,14.116V13.64a3.1,3.1,0,0,1,0-.476,1.625,1.625,0,0,1,.476-.7.72.72,0,0,0,.226-.363.6.6,0,0,0-.113-.393,2.471,2.471,0,0,1-.25-.393l-.256-.536q1.887.476,2.673.6a8.543,8.543,0,0,0,2.673,0,11.556,11.556,0,0,0,2.56-.7,14.08,14.08,0,0,0,2.447-1.191l-.339,1.786,4.763-1.6-.2,2.59L22.2,11.8v2.608h-.113a1.619,1.619,0,0,0-.762-.816,2.286,2.286,0,0,0-1.125-.2q-1.322.054-2.054.143a13.366,13.366,0,0,0-1.994.339,6.811,6.811,0,0,0-.9.339,1.637,1.637,0,0,0-.714.667.327.327,0,0,1-.083.054.25.25,0,0,1-.113,0,11.788,11.788,0,0,1-1.244-.054.256.256,0,0,1-.226-.083A2.161,2.161,0,0,0,12,14.038a3.667,3.667,0,0,0-1.072-.28q-.869-.113-2.054-.226l-2.054-.143a1.441,1.441,0,0,0-1.351.786l-.113-.054M17.45,19.016a4.007,4.007,0,0,0,2.756.339,2.8,2.8,0,0,0,.673-.256l.7-.339q-.143.423-.363,1.268a13.229,13.229,0,0,1-.381,1.268A18.378,18.378,0,0,1,19.647,24a10.4,10.4,0,0,1-1.828,2.334A5.3,5.3,0,0,1,12.08,27.8a5.918,5.918,0,0,1-1.887-1.125,9.127,9.127,0,0,1-1.465-1.631,15.122,15.122,0,0,1-1.6-2.87,26.018,26.018,0,0,1-1.012-3.149v-.113a3.018,3.018,0,0,0,1.578.506,4.489,4.489,0,0,0,1.828-.28,5.692,5.692,0,0,0,1.715-.959A5.066,5.066,0,0,0,12.425,16.6a.822.822,0,0,1,.28-.393.941.941,0,0,1,.423-.083h.423a2.262,2.262,0,0,1,1.012.2,1.875,1.875,0,0,1,.732.786,4.566,4.566,0,0,0,2.191,1.941M10.21,22.367v.083a9.526,9.526,0,0,0,2.024,1.786,2.745,2.745,0,0,0,2.923.054A6.549,6.549,0,0,0,17.128,22.6a10.365,10.365,0,0,0-2.5.143,6.049,6.049,0,0,1-4.167-.6.161.161,0,0,0-.113.054.083.083,0,0,0-.054,0h0l-.054.113Z" transform="translate(0)"/></g></svg>