<svg xmlns="http://www.w3.org/2000/svg" width="45" height="44.547" viewBox="0 0 45 44.547"><path d="M32.289,41.125a1.976,1.976,0,0,1-2.69.036.7.7,0,0,0-.97,1.019,3.209,3.209,0,0,0,2.23.9,3.677,3.677,0,0,0,2.316-.863.7.7,0,1,0-.887-1.09Z" transform="translate(-8.434 -12.388)"/><path d="M34.625,29.568c.025-.023.053-.041.077-.065a4.832,4.832,0,0,0,.546-6.251,4.823,4.823,0,0,0,.9-2.807,4.357,4.357,0,0,0-2.51-4.148,2.579,2.579,0,0,0,.629-1.677V12.742a2.6,2.6,0,0,0-2.6-2.6h-.282c-.328-1.843.326-2.876,2.283-3.545A3.588,3.588,0,1,0,36.976,1.6,3.551,3.551,0,0,0,34.5,2.614,14.581,14.581,0,0,0,22.46.968a16.259,16.259,0,0,0-9.627,9.179,2.6,2.6,0,0,0-2.54,2.595V14.62a2.587,2.587,0,0,0,.826,1.891,4.686,4.686,0,0,0-1.657,2.015,4.818,4.818,0,0,0,.611,4.9A3.789,3.789,0,0,0,9.2,26.25a4.7,4.7,0,0,0,1.213,2.979C5.7,30.325,0,35.908,0,44.166a.7.7,0,0,0,.7.7H44.3a.7.7,0,0,0,.7-.72C44.814,36.256,39.859,30.9,34.625,29.568ZM36.976,3.011a2.2,2.2,0,1,1-2.177,2.2A2.192,2.192,0,0,1,36.976,3.011Zm-14.089-.7A13.194,13.194,0,0,1,33.693,3.765s0,.007,0,.011a3.6,3.6,0,0,0-.3,1.427v0c-2.641.869-3.773,2.491-3.437,4.936H14.38A14.7,14.7,0,0,1,22.887,2.308ZM11.7,12.742a1.2,1.2,0,0,1,1.195-1.195h.4l17.52,0,.01,0h.846a1.2,1.2,0,0,1,1.192,1.195V14.62a1.2,1.2,0,0,1-1.192,1.2H12.894a1.2,1.2,0,0,1-1.195-1.2V12.742ZM31.043,21.5a2.918,2.918,0,0,1-2.9,2.736,13.889,13.889,0,0,1-2.887-.426,13.25,13.25,0,0,0-2.793-.418,13.159,13.159,0,0,0-2.551.365c-.653.135-1.329.275-1.963.341A2.974,2.974,0,0,1,14.434,21.8c-.471-1.782.191-3.952,1.367-4.583H29.409C30.57,17.663,31.332,19.626,31.043,21.5ZM21.786,43.463H1.421c.353-8.3,6.884-12.868,10.442-13.014a4.636,4.636,0,0,0,1.5.572c.39,3.645,3.788,6.276,8.423,6.519v5.923ZM14.732,30.371a.7.7,0,0,0-.7-.7A3.88,3.88,0,0,1,10.6,26.25,2.5,2.5,0,0,1,11.448,24l.068-.073a.7.7,0,0,0,0-.957,3.523,3.523,0,0,1-.767-3.877,2.945,2.945,0,0,1,2.559-1.867h.5a6.425,6.425,0,0,0-.732,4.943,4.355,4.355,0,0,0,5.021,3.33,21.286,21.286,0,0,0,2.1-.363,12.281,12.281,0,0,1,2.266-.336,12.081,12.081,0,0,1,2.488.384,14.529,14.529,0,0,0,3.161.459h.038a4.259,4.259,0,0,0,4.278-3.928,6.568,6.568,0,0,0-.914-4.486,3.056,3.056,0,0,1,3.222,3.22,3.421,3.421,0,0,1-.913,2.329.7.7,0,0,0,0,.954,3.426,3.426,0,0,1-.112,4.773,3.366,3.366,0,0,1-2.378.982h-.055a.7.7,0,0,0-.7.677c-.126,3.362-3.68,6-8.091,6C18.03,36.157,14.768,33.724,14.732,30.371Zm8.46,13.092V37.538c4.574-.263,8.224-3.057,8.735-6.683a4.732,4.732,0,0,0,.829-.184c5.043.391,10.318,5.225,10.8,12.792Z" transform="translate(0 -0.322)"/><path d="M23.718,27.723a.7.7,0,0,0,.971,1.018,1.974,1.974,0,0,1,2.69.037.7.7,0,1,0,.887-1.091A3.371,3.371,0,0,0,23.718,27.723Z" transform="translate(-6.976 -8.19)"/><path d="M37.925,26.821a2.815,2.815,0,0,0-1.958.906.7.7,0,0,0,.981,1.009,1.464,1.464,0,0,1,.95-.509,1.294,1.294,0,0,1,.847.489.7.7,0,0,0,1.02-.968A2.616,2.616,0,0,0,37.925,26.821Z" transform="translate(-10.614 -8.189)"/><path d="M38.028,56.014h-.023a.694.694,0,0,0-.692.7.713.713,0,0,0,.715.7.7.7,0,1,0,0-1.406Z" transform="translate(-11.077 -16.856)"/></svg>