<svg xmlns="http://www.w3.org/2000/svg" width="27.25" height="19.456" viewBox="0 0 27.25 19.456"><g transform="translate(-2.247 -7.758)"><path d="M9.392,14.386a1.257,1.257,0,1,0,1.25,1.257A1.252,1.252,0,0,0,9.392,14.386Z" transform="translate(-0.464 -0.738)" fill="#060f1a"/><path d="M28.663,16.05C27.373,10.668,26.011,7.809,23.28,7a5.425,5.425,0,0,0-1.563-.243c-1.679,0-2.852.894-5.845.894s-4.166-.894-5.845-.894A5.365,5.365,0,0,0,8.465,7c-2.731.809-4.093,3.673-5.382,9.05s-1.052,9.269.468,9.992a1.774,1.774,0,0,0,.76.17c1.32,0,2.743-1.447,4.117-3.163,1.563-1.952,1.952-2.007,6.708-2.007h1.478c4.75,0,5.145.049,6.708,2.007,1.368,1.715,2.8,3.163,4.117,3.163a1.794,1.794,0,0,0,.76-.17C29.715,25.313,29.946,21.426,28.663,16.05Zm-20.137.894a2.409,2.409,0,1,1,2.384-2.408A2.4,2.4,0,0,1,8.526,16.944Zm10.515-1.186a1.222,1.222,0,1,1,1.222-1.222A1.223,1.223,0,0,1,19.041,15.758Zm2.67,2.67a1.219,1.219,0,1,1,1.222-1.216A1.221,1.221,0,0,1,21.711,18.428Zm0-5.34a1.222,1.222,0,1,1,1.222-1.222A1.223,1.223,0,0,1,21.711,13.088Zm2.67,2.67A1.222,1.222,0,1,1,25.6,14.536,1.223,1.223,0,0,1,24.381,15.758Z" transform="translate(0 1.001)" fill="#060f1a"/></g></svg>