<svg xmlns="http://www.w3.org/2000/svg" width="23.374" height="27.887" viewBox="0 0 23.374 27.887"><g transform="translate(-114.236 -1913.236)"><path d="M73.076,52.441c.116-.3-.127-.51-.065-.834a.49.49,0,0,1,.079-.187.31.31,0,0,0,.067-.21c-.05-.39-1.139-.827-1.454-.955-.331-.135-.667-.26-1-.4a2.654,2.654,0,0,1-.728-.407,2.269,2.269,0,0,1-.394-.491,5.818,5.818,0,0,1-.258-3.515c.1-.788.221-1.572.31-2.361a23.363,23.363,0,0,0,.161-2.765,10.148,10.148,0,0,0-1.456-5.483,6.306,6.306,0,0,0-3.469-2.664q-.273-.082-.552-.138a7.305,7.305,0,0,0-4.034.377,5.613,5.613,0,0,0-3.746,5.34l0,.258-.257-.026c-.181-.018-.469.023-.554.214-.114.255.273.56.444.674l.305.2-.31.195a.921.921,0,0,0-.429.772,3.68,3.68,0,0,0,.458,1.747,3.15,3.15,0,0,0,1.2,1.259.787.787,0,0,0,.266.085l.131.018.053.121c.021.048.042.1.064.142a13.7,13.7,0,0,0,1.678,2.823l.051.064v2.875l.081.187-.237.084a27,27,0,0,0-2.91,1.306c-.8.4-1.6.8-2.434,1.124a3.65,3.65,0,0,0-1.951,1.885,11.362,11.362,0,0,0-.692,1.782,16.614,16.614,0,0,0-.47,2.116.234.234,0,0,0,.239.271h.009a18.481,18.481,0,0,1,3.323.314c.92.172,1.816.411,2.717.657l.634.172c.738.2,1.477.378,2.23.505a15.078,15.078,0,0,0,5.063,0c.753-.127,1.492-.308,2.23-.505L68.1,58.9c.9-.246,1.8-.486,2.723-.658a18.411,18.411,0,0,1,3.333-.313.235.235,0,0,0,.235-.234.251.251,0,0,0,0-.036,13.655,13.655,0,0,0-1.162-3.9,4.325,4.325,0,0,0-.643-.971l-.363-.407.546.014a1.259,1.259,0,0,1,.311.047Z" transform="translate(63.221 1881.333)" fill="#060f1a" fill-rule="evenodd"/><path d="M54.6,37.543a1.686,1.686,0,0,0-.278-.046c-.194-.045-.066.945.145,1.336a1.558,1.558,0,0,0,1.48,1.053q.132.329.28.654a9.354,9.354,0,0,0,2.464,3.484,2.514,2.514,0,0,0,2.785,0,8.371,8.371,0,0,0,2.112-2.759,9.817,9.817,0,0,0,.153-6.428,4.055,4.055,0,0,1-2.226,1.271,3.662,3.662,0,0,0,1.141-1.53,7.362,7.362,0,0,1-5.413,2.2c1.872-.421,2.886-1.815,3.861-2.538-2.043,1.233-3.718,2.363-5.6,2.552a15.389,15.389,0,0,0,.444,2.763A7.306,7.306,0,0,0,54.6,37.543ZM57.89,44.5v1.7a.872.872,0,0,1-.585.826,24.949,24.949,0,0,0-2.63,1.181c-.773.382-1.545.765-2.311,1.067a2.493,2.493,0,0,0-.916.621,27.294,27.294,0,0,0,8.185,2.516,28.424,28.424,0,0,0,10.128-.481,9.63,9.63,0,0,0-.5-1.227,3.053,3.053,0,0,0-.792-1.038c-1.413.783-3.229,2.72-5.895,1.088a2.662,2.662,0,0,1-.272-.19,5.622,5.622,0,0,1-6.618-1.686.437.437,0,0,1,.681-.548,4.635,4.635,0,0,0,3.714,1.808,4.739,4.739,0,0,0,1.618-.276c-.6-1.033-.6-2.659.092-5a3.308,3.308,0,0,1-1.71.456,3.215,3.215,0,0,1-1.92-.6q-.137-.1-.272-.222Zm11.526,4.867a4.227,4.227,0,0,1,.63.95A12.865,12.865,0,0,1,71.145,54h0a.428.428,0,0,1,.006.068.437.437,0,0,1-.437.437,19.713,19.713,0,0,0-5.565.893,17.911,17.911,0,0,1-5.067.835,17.911,17.911,0,0,1-5.067-.835,19.723,19.723,0,0,0-5.551-.893A.437.437,0,0,1,49.019,54a15.717,15.717,0,0,1,.443-1.992,10.734,10.734,0,0,1,.656-1.689,3.606,3.606,0,0,1,1.928-1.857c.735-.29,1.488-.663,2.242-1.036A25.7,25.7,0,0,1,57.013,46.2h0V43.565A13.047,13.047,0,0,1,55.427,40.9l-.06-.134a.949.949,0,0,1-.321-.1,3.124,3.124,0,0,1-1.2-1.257,3.64,3.64,0,0,1-.451-1.727,1.073,1.073,0,0,1,.5-.9c-.946-.626-.472-1.3.245-1.225.052-4.345,4.289-6.16,7.485-5.519,2.88.577,5.231,3.3,5.26,7.9.025,4.081-1.357,6.944.1,8.318.554.522,3.616,1.1,2.918,2.115-.177.257.278.595-.1,1.093a.939.939,0,0,0-.39-.094ZM57.014,46.2h0s0,0,0,0Zm0,0Zm5.239-13.643c-2.093,1.268-4.435,3.141-7.45,3.711,2.566-.8,5.278-3.066,7.45-3.711Z" transform="translate(65.605 1884.109)" fill="#fff" fill-rule="evenodd"/></g></svg>