<svg xmlns="http://www.w3.org/2000/svg" width="27.477" height="29.969" viewBox="0 0 27.477 29.969"><g transform="translate(0.601 0.655)"><g transform="translate(-0.601 -0.655)"><path d="M3.772,13.893a3.149,3.149,0,0,0,.376.718,2.348,2.348,0,0,0,.619.685,1.149,1.149,0,0,0,1.061.033l-.889-2.022L8.164,9.192a.829.829,0,0,0-.447-.2.552.552,0,0,0-.447.276q-1.1,1.409-1.541,1.956Q4.838,12.28,4.114,13.07a.945.945,0,0,0-.343.823M7.788,5.054a2.055,2.055,0,0,0-.608,1.53A2.055,2.055,0,0,0,7.8,8.092a2.155,2.155,0,0,0,3.016-.066,2.055,2.055,0,0,0,.619-1.508,2.171,2.171,0,0,0-2.171-2.1,1.9,1.9,0,0,0-1.475.657M12.009,27.34q.1-.414.276-1.061-.376-.033-.757-.1l-.757.961a9.944,9.944,0,0,0,1.238.2M21.578,11.9v3.945l3.431-1.989L21.578,11.9m-.757.138V24.2a12.331,12.331,0,0,1-5.492,2.061q-.481,1.238.033,1.1a12.489,12.489,0,0,0,8.06-3.945,13.171,13.171,0,0,0,4.05-9.707,13.171,13.171,0,0,0-4.044-9.7A13.226,13.226,0,0,0,13.722,0,13.226,13.226,0,0,0,4.015,4.015,13.226,13.226,0,0,0,0,13.722a13.226,13.226,0,0,0,4.016,9.707,15.337,15.337,0,0,0,3.226,2.436L8,25.009A13.425,13.425,0,0,1,4.8,22.65a12.2,12.2,0,0,1-3.7-8.928A12.2,12.2,0,0,1,4.8,4.766a12.088,12.088,0,0,1,8.922-3.707A12.2,12.2,0,0,1,22.65,4.766a12.2,12.2,0,0,1,3.707,8.955A12.2,12.2,0,0,1,22.65,22.65a12.11,12.11,0,0,1-1.442,1.238V11.971q-.309-.1-.414.066M14.611,7.269a1.055,1.055,0,0,0-.586-.033,7.834,7.834,0,0,0-2.094,1.1,4.127,4.127,0,0,1-.961.619,2.3,2.3,0,0,1-1.1.276,1.834,1.834,0,0,0-1.271.514,1.718,1.718,0,0,0-.431,1.3,4.182,4.182,0,0,0,1.409,3.315,5.475,5.475,0,0,1,1.784,3.016,8.287,8.287,0,0,1,.243,3.166,5.585,5.585,0,0,1-1.337,2.884q-.514.586-1.956,2.127a8.116,8.116,0,0,1-.928.889.4.4,0,0,0-.066.1q-.238.2-.376.343a1.409,1.409,0,0,0-.309.856.878.878,0,0,0,.309.757.707.707,0,0,0,.552.1,3.011,3.011,0,0,0,.685-.2,8.972,8.972,0,0,0,2.47-1.851l1.061-1.3a12.768,12.768,0,0,0,.823-1.37q.238-.447.343-.685a16.447,16.447,0,0,1-.166,2.359l-.343,2.713q-.066.343-.1.652a1.022,1.022,0,0,0,.138.652.751.751,0,0,0,.514.343,1.16,1.16,0,0,0,.685,0,.829.829,0,0,0,.481-.481,4.718,4.718,0,0,0,.414-1.271q.1-.514.238-1.3.033-.309.066-.552l.066-.481q.238-1.613.376-2.331a21.972,21.972,0,0,0,0-7.342,9.11,9.11,0,0,0-.873-2.674,25.746,25.746,0,0,0-1.569-2.431q.2-.2.586-.552a5.442,5.442,0,0,0,.514-.514l.619-.591a3.127,3.127,0,0,0,.481-.685.978.978,0,0,0,.171-.586.851.851,0,0,0-.066-.514.84.84,0,0,0-.486-.337Z" transform="translate(0.003 0.003)" fill="#060f1a"/></g></g></svg>