<svg xmlns="http://www.w3.org/2000/svg" width="29.243" height="25.051" viewBox="0 0 29.243 25.051"><g transform="translate(-5.947 -11.998)"><path d="M20.17,24.524l7.507-7.507a.7.7,0,0,0,.02-.964,12.525,12.525,0,1,0,0,16.942.7.7,0,0,0-.02-.964ZM18.49,35.657a11.133,11.133,0,1,1,7.717-19.138l-7.513,7.513a.7.7,0,0,0,0,.984l7.513,7.513a11.143,11.143,0,0,1-7.717,3.129Z" transform="translate(0)" fill="#060f1a"/><path d="M64.087,42a2.087,2.087,0,1,0,2.087,2.087A2.087,2.087,0,0,0,64.087,42Zm0,2.783a.7.7,0,1,1,.7-.7A.7.7,0,0,1,64.087,44.783Z" transform="translate(-36.551 -19.564)" fill="#060f1a"/><path d="M80.087,42a2.087,2.087,0,1,0,2.087,2.087A2.087,2.087,0,0,0,80.087,42Zm0,2.783a.7.7,0,1,1,.7-.7A.7.7,0,0,1,80.087,44.783Z" transform="translate(-46.985 -19.564)" fill="#060f1a"/><path d="M32.087,24a2.087,2.087,0,1,0,2.087,2.087A2.087,2.087,0,0,0,32.087,24Zm0,2.783a.7.7,0,1,1,.7-.7.7.7,0,0,1-.7.7Z" transform="translate(-15.685 -7.826)" fill="#060f1a"/></g></svg>