<svg xmlns="http://www.w3.org/2000/svg" width="26.525" height="28.582" viewBox="0 0 26.525 28.582"><g transform="translate(-7.728 -6)"><g transform="translate(7.728 6)"><path d="M33.991,19.453a2.13,2.13,0,0,1-1.268,1.024l-5.067,1.489a2.155,2.155,0,0,1-1.507-.119l-2.87-1.34-1.03,1.256,2.8.339a2.146,2.146,0,0,1,.941.345l4.7,3.174a2.132,2.132,0,0,1-1.191,3.9,2.187,2.187,0,0,1-1.191-.363l-4.275-2.888-3.99-.476-2.793,3.037a2.139,2.139,0,0,1-2.233.584L9.19,27.492a2.129,2.129,0,1,1,1.334-4.043l4.531,1.489.572-.625a2.444,2.444,0,0,1,.327-2.56l2.769-3.376-1.042-.482-3.8,1.542a2.13,2.13,0,1,1-1.6-3.948l4.656-1.894a2.158,2.158,0,0,1,1.709.042l8.581,4.013,4.293-1.262a2.14,2.14,0,0,1,2.644,1.447A2.1,2.1,0,0,1,33.991,19.453Z" transform="translate(-7.728 -9.009)" fill="#060f1a"/><path d="M35.066,12.389A3.195,3.195,0,1,0,31.874,9.2,3.2,3.2,0,0,0,35.066,12.389Z" transform="translate(-17.496 -6)" fill="#060f1a"/><path d="M30.4,46.227H28.482v-7.9a.6.6,0,1,0-1.191,0v7.9H25.38a.6.6,0,1,0,0,1.191H30.4a.6.6,0,1,0,0-1.191Z" transform="translate(-14.628 -18.836)" fill="#060f1a"/></g></g></svg>