<svg xmlns="http://www.w3.org/2000/svg" viewBox="0 0 55.07 49.99"><title>Kids Games</title><g id="Layer_2" data-name="Layer 2"><g id="Layer_1-2" data-name="Layer 1"><g id="Layer0_33_FILL" data-name="Layer0 33 FILL"><path d="M11.24,0A2.6,2.6,0,0,0,9,1.12,1.48,1.48,0,0,0,9.08,3q-1.59.15-1.34-1.7A6,6,0,0,0,5.27,3.44,9.52,9.52,0,0,0,4.4,5.55a7.25,7.25,0,0,0-.15,1.9q.05,1,.51,4.17a7.94,7.94,0,0,0,3.19,5.25,6.93,6.93,0,0,0,3.6,1.44,7.21,7.21,0,0,0,3.7-.46,7.7,7.7,0,0,0,3-2.16,7.53,7.53,0,0,0,1.65-3.55q.1-.87.21-2.21.05-1.59.15-2.47-.05-.46-.1-.77a4.49,4.49,0,0,0-.26-1.13,6.62,6.62,0,0,0-.51-1.34,11.06,11.06,0,0,0-2.57-2.62A7.42,7.42,0,0,0,11.24,0m6.95,9.62a6.54,6.54,0,0,1-.41,3.45,5.68,5.68,0,0,1-2.11,2.62,5.8,5.8,0,0,1-3.29.87,5.21,5.21,0,0,1-3.19-1.34A6.46,6.46,0,0,1,7.07,12q-.57-2-.21-2.06a4.52,4.52,0,0,0,.67.1q.26,0,.77.05.1,0,1.13-.21.21-2.42,1.85-2.73a2.68,2.68,0,0,0,0,3.09l.1.15q3.19-5.71,5.45-3.7a4.67,4.67,0,0,1,1.34,3M44.84,1.74A9.61,9.61,0,0,0,37.68.87a6.21,6.21,0,0,0-4.58,4,10.45,10.45,0,0,0-.67,2.31q-.15.77-.41,2.31a.71.71,0,0,1-.15.36,1.2,1.2,0,0,1-.31.21l-1.39.46q-.77.31-1.34.57a5,5,0,0,0-2.11,2.26,4.46,4.46,0,0,0-.36,3,3.58,3.58,0,0,0,1.29,2,3.41,3.41,0,0,0,2.16.77,9.78,9.78,0,0,1,.31-3.81A8,8,0,0,1,32,11.93,10,10,0,0,0,35,17.12a7.61,7.61,0,0,0,3,1.7q-1.9.62-2.11.72a2,2,0,0,0-.36.26q-.46.51-1.08,1.29l-1,1.29-5.56,6.69a2.29,2.29,0,0,0-1.65-.31,6.7,6.7,0,0,1-.72.26l-2.93-3.65Q19.11,21.24,18,20a.92.92,0,0,0-.26-.26,15,15,0,0,0-2.68-.62,11.81,11.81,0,0,0-4.78.05,21.16,21.16,0,0,0-2.47.62.65.65,0,0,0-.31.15Q6.15,21.44,3.83,24,1.72,26.33.69,27.41q-.82.67-.67,1.18Q-.18,31.06,3,30.5L7,27V38.83a1.24,1.24,0,0,0,.05.51.94.94,0,0,0,.57.1h.82v9.41q-.57.05-.87.05v1H12V39.45h1.59V50h4q.31,0,.36-.15a.69.69,0,0,0,.05-.36.85.85,0,0,0-.05-.41q-.05-.21-.36-.15a.5.5,0,0,1-.46-.1.6.6,0,0,1-.1-.41V39.91l.05-.46h1.23q.31.05.41-.1t.15-.46q-.05-1.85-.05-11s0-.22.05-.57a.15.15,0,0,1,.1.05H19q.82.93,2.57,2.67,1.54,1.59,2.57,2.73a0,0,0,0,1,.05.05,2.59,2.59,0,0,0,1,1.49,2.11,2.11,0,0,0,1.18.46,2.21,2.21,0,0,0,1.23-.15,2.17,2.17,0,0,0,1-.72,2.43,2.43,0,0,0,.51-1.13,1.7,1.7,0,0,0,.05-.41q1.39-1.65,4.73-5.45.31-.31,1.44-1.59.31,2.67.36,2.93a1.18,1.18,0,0,1-.1.41l-5.35,9.1-.82,1.49h6.74a.6.6,0,0,1,.41.1.46.46,0,0,1,.15.41v8.9l-1,.1v1h4.32V40.37q0-.82.15-.93t1-.15a.41.41,0,0,1,.51.51v10h4.32v-1l-.26-.05q-.51,0-.57-.1t-.1-.51V39.81a.41.41,0,0,1,.51-.51h4.58l.51-.05a1.62,1.62,0,0,1-.15-.36q-1.59-3.14-2.42-4.68l-2.42-4.73a3.85,3.85,0,0,1-.41-1.08,3.14,3.14,0,0,1,0-1.13q.05-.51.1-1.23t.05-1.23q.46.51,1,1.13.31.41.93,1.18,1.75,2.37,2.62,3.5a1.74,1.74,0,0,0,1.85.15q1.23-.57.72-2.06l-1-1.54q-3-4-5.4-7.36a.81.81,0,0,0-.31-.21q-.15-.1-2.16-.82A8.11,8.11,0,0,0,46,17.59a10.46,10.46,0,0,0,3.29-5,11.45,11.45,0,0,1,1.29,3.14,9.53,9.53,0,0,1,.31,3.4,4.46,4.46,0,0,0,.62-.05,2.44,2.44,0,0,0,.57-.05,6.7,6.7,0,0,0,1.59-.51,2.75,2.75,0,0,0,1.13-1.29q.15-.46.26-.72V15.42a.4.4,0,0,1-.05-.15.4.4,0,0,1-.05-.15,7.29,7.29,0,0,0-2.26-3.7,6.7,6.7,0,0,0-2.83-1.59.65.65,0,0,1-.31-.15.42.42,0,0,1-.1-.31q-.05-.26-.1-.62s0-.22-.1-.57a8.78,8.78,0,0,0-4.42-6.43M39.9,8.43a4,4,0,0,0,.46-.67l.51-.67V9.25a1.61,1.61,0,0,0,.15.93q.1.15.87.1,1,0,2.32-.05l2.26-.15a1,1,0,0,1,.46.05.7.7,0,0,1,.1.46,6.25,6.25,0,0,1-1.13,3.5,6.72,6.72,0,0,1-3.09,2.31,6,6,0,0,1-3.5.21,6.4,6.4,0,0,1-4.89-5.66.46.46,0,0,1,0-.31.47.47,0,0,1,.26-.26,3.82,3.82,0,0,0,1-.87,11,11,0,0,0,.67-1.13,1.2,1.2,0,0,0,.21-.31s0-.07.1-.1a2.43,2.43,0,0,1,.51,1,4.27,4.27,0,0,1,.15,1.08q.05.21.15.57a.88.88,0,0,1,.36-.05q.26-.05.31-.15Q39.13,9.41,39.9,8.43Z"/></g></g></g></svg>