<svg xmlns="http://www.w3.org/2000/svg" xmlns:xlink="http://www.w3.org/1999/xlink" width="54.55" height="54.55" viewBox="0 0 54.55 54.55"><defs><linearGradient id="a" x1="0.5" x2="0.5" y2="1" gradientUnits="objectBoundingBox"><stop offset="0" stop-color="#ff2c32"/><stop offset="1" stop-color="#d81f0c"/></linearGradient><filter id="b" x="0" y="0" width="54.55" height="54.55" filterUnits="userSpaceOnUse"><feOffset dy="2" input="SourceAlpha"/><feGaussianBlur stdDeviation="3" result="c"/><feFlood flood-color="#dbe3ff"/><feComposite operator="in" in2="c"/><feComposite in="SourceGraphic"/></filter></defs><g transform="translate(-99 -2583)"><g transform="translate(-45.5 2288)"><g transform="matrix(1, 0, 0, 1, 144.5, 295)" filter="url(#b)"><path d="M9.4,0H27.151a9.4,9.4,0,0,1,9.4,9.4V27.151a9.4,9.4,0,0,1-9.4,9.4H9.4a9.4,9.4,0,0,1-9.4-9.4V9.4A9.4,9.4,0,0,1,9.4,0Z" transform="translate(9 7)" fill="url(#a)"/></g></g><g transform="translate(106.51 2592.5)"><g transform="translate(8.491 2.5)"><circle cx="2.845" cy="2.845" r="2.845" transform="translate(1.537 0)" fill="#fff"/><path d="M14.1,31.864l.279-2.259a4.685,4.685,0,0,1,1.674-3.04,2.972,2.972,0,0,0-2.12-.865h-2.12A3.041,3.041,0,0,0,8.8,28.378l-.307,2.455a.665.665,0,0,0,.474.7,17.58,17.58,0,0,0,3.877.39C13.263,31.92,13.681,31.892,14.1,31.864Z" transform="translate(-8.491 -19.229)" fill="#fff"/><circle cx="2.845" cy="2.845" r="2.845" transform="translate(15.929 0)" fill="#fff"/><path d="M71.652,28.378A3.014,3.014,0,0,0,68.668,25.7H66.52a3.093,3.093,0,0,0-2.12.865,4.588,4.588,0,0,1,1.646,3.04l.279,2.259c.39.028.809.056,1.227.056a19.439,19.439,0,0,0,3.877-.39.62.62,0,0,0,.474-.7Z" transform="translate(-48.806 -19.229)" fill="#fff"/><path d="M34.4,36a6.276,6.276,0,0,1,.669.223,7.264,7.264,0,0,1,.7.279h5.941a5.192,5.192,0,0,1,.7-.279A6.276,6.276,0,0,1,43.075,36l-.307-2.455a2.989,2.989,0,0,0-2.984-2.65h-2.12a3.04,3.04,0,0,0-3.012,2.65Z" transform="translate(-27.173 -22.979)" fill="#fff"/><circle cx="2.845" cy="2.845" r="2.845" transform="translate(8.733 1.45)" fill="#fff"/><path d="M28.107,53.873a8.305,8.305,0,0,0-.837.363H20.632a5.805,5.805,0,0,0-.837-.363c-3.877-1.367-4.156,1.506-5.3,4.77s-.669,6.415,1.116,7.057,4.156-1.506,5.3-4.77V60.9h6.081v.028c1.171,3.263,3.542,5.383,5.3,4.77,1.785-.642,2.259-3.793,1.116-7.057S31.984,52.478,28.107,53.873Zm-7.28,4.3a.18.18,0,0,1-.167.167H19.488v1.171a.18.18,0,0,1-.167.167h-.893a.18.18,0,0,1-.167-.167V58.336H17.09a.18.18,0,0,1-.167-.167v-.893a.18.18,0,0,1,.167-.167h1.171V55.937a.18.18,0,0,1,.167-.167h.893a.18.18,0,0,1,.167.167v1.171H20.66a.18.18,0,0,1,.167.167Zm8.256-2.706a.753.753,0,1,1-.753.753A.75.75,0,0,1,29.083,55.463Zm-1.478,3.012a.753.753,0,1,1,.753-.753A.75.75,0,0,1,27.605,58.475Zm1.478,1.506a.753.753,0,1,1,.753-.753A.733.733,0,0,1,29.083,59.981Zm1.506-1.506a.753.753,0,1,1,.753-.753A.75.75,0,0,1,30.59,58.475Z" transform="translate(-12.373 -39.285)" fill="#fff"/></g></g></g></svg>