<svg xmlns="http://www.w3.org/2000/svg" width="40.556" height="36.83" viewBox="0 0 40.556 36.83"><g transform="translate(-0.15 -1.257)"><path d="M27.174,13.1a1.026,1.026,0,0,1-1.006-1.006,6.7,6.7,0,1,0-13.381,0A1.026,1.026,0,0,1,11.781,13.1a1.006,1.006,0,0,1-1.006-1.006,8.713,8.713,0,1,1,17.406,0A1.006,1.006,0,0,1,27.174,13.1Z" transform="translate(10.744 1.726)"/><circle cx="1.288" cy="1.288" r="1.288" transform="translate(13.712 17.623)"/><circle cx="0.926" cy="0.926" r="0.926" transform="translate(18.863 18.911)"/><circle cx="0.926" cy="0.926" r="0.926" transform="translate(21.509 21.265)"/><path d="M4.16,15.68l1.388,2.012A44.65,44.65,0,0,1,13.98,15.68" transform="translate(4.059 14.6)"/><path d="M6.056,19.2a1.006,1.006,0,0,1-.825-.4L3.822,16.79A1.026,1.026,0,0,1,4.084,15.4a1.006,1.006,0,0,1,1.409.262l.966,1.429a37.93,37.93,0,0,1,8.049-1.871,1.006,1.006,0,1,1,0,2.012,42.6,42.6,0,0,0-8.049,2.012A.825.825,0,0,1,6.056,19.2Z" transform="translate(3.551 14.134)"/><circle cx="0.926" cy="0.926" r="0.926" transform="translate(9.265 18.911)"/><circle cx="0.926" cy="0.926" r="0.926" transform="translate(6.368 21.265)"/><path d="M2.376,17.418H3.5a10.061,10.061,0,0,1,9.719-7.505h1.127a10.061,10.061,0,0,1,9.719,7.505h1.127a2.294,2.294,0,0,1,1.026.262A12.073,12.073,0,0,0,14.349,7.9H13.222A12.073,12.073,0,0,0,1.35,17.679a2.213,2.213,0,0,1,1.026-.262Z" transform="translate(1.215 6.725)"/><path d="M25.316,15.882h-.765v.443a4.99,4.99,0,0,1-4.97,4.99H8.232a4.99,4.99,0,0,1-4.99-4.99v-.443H2.5a2.374,2.374,0,0,1-1.268-.4v.845a7,7,0,0,0,7,7H19.581a7,7,0,0,0,6.982-7V15.48A2.254,2.254,0,0,1,25.316,15.882Z" transform="translate(1.093 14.397)"/><path d="M30.025,9.182H11.232a1.008,1.008,0,1,1,0-2.012H30.025a1.008,1.008,0,1,1,0,2.012Z" transform="translate(9.619 5.986)"/><path d="M16.128,8.061a1.281,1.281,0,0,1-.618-.183,1.121,1.121,0,0,1-.32-1.578l2.9-4.574a1.166,1.166,0,0,1,1.6-.343,1.144,1.144,0,0,1,.32,1.578L17.089,7.6a1.1,1.1,0,0,1-.961.457Z" transform="translate(15.025 0.056)"/><path d="M37.718,9.182a1.046,1.046,0,0,0-.745-.322H34.961v1.791a1.006,1.006,0,1,1-2.012,0V8.82H30.937v4.99a1.006,1.006,0,1,1-2.012,0v-3.1A1.891,1.891,0,0,0,27.033,8.82H23.491a1.046,1.046,0,0,0-.745.322,1.066,1.066,0,0,0-.262.765v.563a11.148,11.148,0,0,1,3.521,5.01H3.591A3.461,3.461,0,0,0,.15,18.941v1.248A3.461,3.461,0,0,0,3.591,23.63h23a6.037,6.037,0,0,1-2.354,4.246l.161,1.65a.986.986,0,0,0,.986.905h9.7a1.006,1.006,0,0,0,.986-.926l1.891-19.6a.986.986,0,0,0-.241-.724ZM3.51,21.658a1.429,1.429,0,0,1-1.429-1.429V18.982A1.429,1.429,0,0,1,3.51,17.533h22.9a1.429,1.429,0,0,1,1.429,1.449v1.248a1.429,1.429,0,0,1-1.429,1.429Z" transform="translate(0 7.656)"/></g></svg>