<svg xmlns="http://www.w3.org/2000/svg" width="25.504" height="20.79" viewBox="0 0 25.504 20.79"><path d="M4.545,15.641l-.048.1a4.269,4.269,0,0,0,.024,3.36v.121H5.85v.653H11.7v-.653h.387V15.641H11.7v-.653H5.874v.677H4.545m9.839-.677v.677h-1.33l-.048.1a4.269,4.269,0,0,0,.048,3.336v.121H14.36v.653h5.85v-.653H20.6V15.641H20.21v-.653H14.384M25.5,0H0V20.79H1.934V1.934H23.57V20.79H25.5V0M21.346,4.424H17.333v.435H16.56v6.575h.774v1.45l.121.073a4.719,4.719,0,0,0,3.771,0l.121-.048v-1.45h.774v-6.6h-.774V4.424m-10.709.435H9.863v6.575h.774v1.45l.121.073a4.724,4.724,0,0,0,3.771,0l.121-.048v-1.45h.774v-6.6H14.65V4.424H10.637v.435M8.074,4.424H4.037v.435H3.288v6.575h.749v1.45l.121.073a4.719,4.719,0,0,0,3.771,0l.145-.048v-1.45h.749v-6.6H8.074Z" fill="#060f1a"/></svg>