<svg xmlns="http://www.w3.org/2000/svg" viewBox="0 0 52.75 42.95"><title>Parking Games</title><g id="Layer_2" data-name="Layer 2"><g id="Layer_1-2" data-name="Layer 1"><g id="Layer0_40_FILL" data-name="Layer0 40 FILL"><path d="M9.4,32.35l-.1.2a8.83,8.83,0,0,0,.05,6.95l0,.25h2.75V41.1H24.2V39.75H25v-7.4h-.8V31H12.15v1.4H9.4M29.75,31v1.4H27l-.1.2A8.83,8.83,0,0,0,27,39.5l0,.25h2.7V41.1h12.1V39.75h.8v-7.4h-.8V31H29.75m23-31H0V43H4V4H48.75V43h4V0m-8.6,9.15h-8.3v.9h-1.6v13.6h1.6v3l.25.15a9.76,9.76,0,0,0,7.8,0l.25-.1v-3h1.6V10.05h-1.6v-.9M22,10.05H20.4v13.6H22v3l.25.15a9.77,9.77,0,0,0,7.8,0l.25-.1v-3h1.6V10.05H30.3v-.9H22v.9m-5.3-.9H8.35v.9H6.8v13.6H8.35v3l.25.15a9.76,9.76,0,0,0,7.8,0l.3-.1v-3h1.55V10.05H16.7Z"/></g></g></g></svg>