<svg xmlns="http://www.w3.org/2000/svg" width="30" height="30" viewBox="0 0 30 30"><g transform="translate(-563 -476.001)"><path d="M6939-7104a14.9,14.9,0,0,1-10.606-4.394A14.9,14.9,0,0,1,6924-7119a14.9,14.9,0,0,1,4.394-10.606A14.9,14.9,0,0,1,6939-7134a14.9,14.9,0,0,1,10.606,4.394A14.9,14.9,0,0,1,6954-7119a14.9,14.9,0,0,1-4.394,10.606A14.9,14.9,0,0,1,6939-7104Zm0-25a10.012,10.012,0,0,0-10,10,10.01,10.01,0,0,0,10,10,10.012,10.012,0,0,0,10-10A10.013,10.013,0,0,0,6939-7129Z" transform="translate(-6361 7610)" fill="#060f1a"/><g transform="translate(0 1)"><path d="M4,8A4,4,0,1,1,8,4,4,4,0,0,1,4,8ZM4,2A2,2,0,1,0,6,4,2,2,0,0,0,4,2Z" transform="translate(574 483)" fill="#060f1a"/><path d="M4,8A4,4,0,1,1,8,4,4,4,0,0,1,4,8ZM4,2A2,2,0,1,0,6,4,2,2,0,0,0,4,2Z" transform="translate(574 489)" fill="#060f1a"/></g></g></svg>