<svg xmlns="http://www.w3.org/2000/svg" width="32.416" height="21.996" viewBox="0 0 32.416 21.996"><g transform="translate(0 -20.572)"><g transform="translate(0 20.572)"><path d="M32.416,28.855a2.312,2.312,0,0,1-2.309,2.314.308.308,0,0,1-.065,0L27.785,39.79H4.631L2.212,31.826a2.312,2.312,0,1,1,2.406-2.309,2.42,2.42,0,0,1-.125.759l5.592,3.272,4.728-8.7a2.309,2.309,0,1,1,2.457,0L22,33.548l6.091-3.563a2.311,2.311,0,1,1,4.327-1.129ZM27.785,40.716H4.631v1.852H27.785V40.716Z" transform="translate(0 -20.572)" fill="#060f1a"/></g></g></svg>