<svg xmlns="http://www.w3.org/2000/svg" width="27.387" height="27.163" viewBox="0 0 27.387 27.163"><path d="M1.141,9.761H0C0,6.909,4.69,4.586,11.411,4.13l.08,1.141C5.706,5.665,1.141,7.633,1.141,9.761Z" transform="translate(0 -1.774)" fill="#060f1a"/><path d="M39.355,9.761H38.214c0-2.128-4.564-4.1-10.344-4.49l.08-1.141C34.665,4.586,39.355,6.909,39.355,9.761Z" transform="translate(-11.969 -1.774)" fill="#060f1a"/><path d="M21.853,6.847A3.179,3.179,0,0,1,19,3.423,3.179,3.179,0,0,1,21.853,0a3.179,3.179,0,0,1,2.853,3.423A3.179,3.179,0,0,1,21.853,6.847Zm0-5.706c-.941,0-1.712,1.021-1.712,2.282s.77,2.282,1.712,2.282,1.712-1.021,1.712-2.282S22.794,1.141,21.853,1.141Z" transform="translate(-8.159)" fill="#060f1a"/><rect width="8.267" height="1.181" transform="translate(9.448 25.982)" fill="#060f1a"/><rect width="1.181" height="11.81" transform="translate(10.629 15.353)" fill="#060f1a"/><rect width="1.181" height="9.448" transform="translate(12.991 17.715)" fill="#060f1a"/><rect height="11.81" transform="translate(16.534 15.353)" fill="#060f1a"/><path d="M16.853,21.4H15.712A1.712,1.712,0,0,1,14,19.691V13.175a2.853,2.853,0,0,1,2.539-2.853l3.1-.342.126,1.141-3.1.348a1.712,1.712,0,0,0-1.523,1.712v6.51a.571.571,0,0,0,.571.571h.571V13.415h1.141v7.417A.571.571,0,0,1,16.853,21.4Z" transform="translate(-6.012 -4.286)" fill="#060f1a"/><path d="M27.947,21.411H26.806a.571.571,0,0,1-.571-.571V13.423h1.141V20.27h.571a.571.571,0,0,0,.571-.571V13.184a1.712,1.712,0,0,0-1.523-1.712l-3.1-.331L24.016,10l3.1.342A2.853,2.853,0,0,1,29.658,13.2v6.5a1.712,1.712,0,0,1-1.712,1.712Z" transform="translate(-10.259 -4.294)" fill="#060f1a"/><rect width="5.905" height="1.181" transform="translate(10.629 15.353)" fill="#060f1a"/><path d="M39.571,29.421A.571.571,0,0,1,39,28.85V17.256a.571.571,0,0,1,.371-.536c2.3-.867,3.623-2.008,3.623-3.149a.571.571,0,0,1,1.141,0V25.164c0,1.655-1.546,3.155-4.365,4.216a.479.479,0,0,1-.2.04Zm.571-11.776v10.35c1.826-.822,2.853-1.831,2.853-2.853V15.916a9.038,9.038,0,0,1-2.853,1.729Z" transform="translate(-16.748 -5.583)" fill="#060f1a"/><path d="M4.564,29.421a.479.479,0,0,1-.2-.04C1.546,28.319,0,26.819,0,25.164V13.571a.571.571,0,1,1,1.141,0c0,1.141,1.324,2.282,3.623,3.149a.571.571,0,0,1,.371.536V28.85A.571.571,0,0,1,4.564,29.421ZM1.141,15.916v9.249c0,1,1.027,2.008,2.853,2.853V17.644a9.129,9.129,0,0,1-2.853-1.729Z" transform="translate(0 -5.583)" fill="#060f1a"/><path d="M8.049,27.184l-.4-1.067a21.344,21.344,0,0,1,4.1-1.067l.183,1.141a20.894,20.894,0,0,0-3.885.993Z" transform="translate(-3.285 -10.758)" fill="#060f1a"/><path d="M36.72,27.162a20.505,20.505,0,0,0-3.88-1.021L33.023,25a21.458,21.458,0,0,1,4.1,1.067Z" transform="translate(-14.103 -10.736)" fill="#060f1a"/></svg>