<svg xmlns="http://www.w3.org/2000/svg" width="29.16" height="24.349" viewBox="0 0 29.16 24.349"><g transform="translate(-2.494 -10.3)"><g transform="translate(2.494 10.3)"><path d="M8.722,21.933H10.2a9.161,9.161,0,0,0,2.854,6.077l.338-.276a4.066,4.066,0,0,1,.767-.491,7.873,7.873,0,0,1-2.609-5.279h2.363a5.435,5.435,0,0,0,2.118,3.775v-.031a1.5,1.5,0,0,1,.614-1.2,4.045,4.045,0,0,1-1.381-2.578h3.53v2.609h1.044V21.933h3.53a4.017,4.017,0,0,1-1.412,2.609h1.78a5.358,5.358,0,0,0,.951-2.609h2.363a7.62,7.62,0,0,1-1.013,3.315.976.976,0,0,1,.061.43v1.166h.46A9.123,9.123,0,0,0,28.365,21.9h1.473a.522.522,0,1,0,0-1.044H28.4A9.135,9.135,0,0,0,19.833,12.3V10.822a.522.522,0,0,0-1.044,0V12.3a9.135,9.135,0,0,0-8.563,8.563h-1.5a.538.538,0,0,0-.522.522A.545.545,0,0,0,8.722,21.933Zm11.111-8.287a7.811,7.811,0,0,1,7.243,7.213H24.713a5.431,5.431,0,0,0-4.88-4.88Zm0,3.683a4.072,4.072,0,0,1,3.53,3.53h-3.53Zm-1.074,3.56h-3.53a4.072,4.072,0,0,1,3.53-3.53Zm0-7.243v2.363a5.459,5.459,0,0,0-4.88,4.88H11.515A7.84,7.84,0,0,1,18.758,13.646Z" transform="translate(-6.449 -10.3)" fill="#060f1a"/><path d="M31.408,62.147h-12V61.073h.89l.215.215a.263.263,0,0,0,.46-.184v-1.32a.265.265,0,0,0-.46-.184l-.215.215H13.914L13.7,59.6a.263.263,0,0,0-.46.184V61.1a.265.265,0,0,0,.46.184l.215-.215h.89v1.074H11.765a2.407,2.407,0,0,0-1.565.583l-.737.614a2.552,2.552,0,0,1-1.289.552l-4.88.552a.522.522,0,0,0-.46.46L2.5,68.194a.514.514,0,0,0,.706.522l7.151-2.7a.272.272,0,0,1,.368.215l.153.982c.031.123.153.246.276.215l.982-.031a.275.275,0,0,0,.276-.276v-.092h1.657a.365.365,0,0,0,.368-.307l.246-1.5h3.9a.757.757,0,0,0,.706-.491A1.827,1.827,0,0,1,21.034,63.5h5.218a.517.517,0,0,0,.522-.522v-.061h4.635a.242.242,0,0,0,.246-.246v-.246A.271.271,0,0,0,31.408,62.147Zm-17.679,4.2H12.41l.031-.8a.275.275,0,0,1,.276-.276h1.2Zm5.034-4.2H15.448V61.073h3.315Z" transform="translate(-2.494 -44.407)" fill="#060f1a"/></g></g></svg>