<svg xmlns="http://www.w3.org/2000/svg" width="30.308" height="21.733" viewBox="0 0 30.308 21.733"><g transform="translate(-5 -17.77)"><path d="M78.413,65.147a2.86,2.86,0,0,0-.573-5.692c-1.313.067-3.772,1.212-3.94,3.1a1.263,1.263,0,0,0,.034.37C74.473,64.743,77.1,65.349,78.413,65.147Z" transform="translate(-45.695 -27.631)" fill="#060f1a"/><path d="M38.442,23.539a1.365,1.365,0,0,0,.3.168c1.583.438,3.3-1.179,3.772-2.223a2.5,2.5,0,0,0-4.446-2.29C37.465,20.171,37.162,22.5,38.442,23.539Z" transform="translate(-21.587 0)" fill="#060f1a"/><path d="M27.6,61.488a2,2,0,0,0-1.145-1.953,3.937,3.937,0,0,0-1.718-.438,11.225,11.225,0,0,0-3.4.741c-1.044.3-2.021.876-3.065,1.145a7.411,7.411,0,0,1-5.288-.909,6.289,6.289,0,0,0-5.557.034A9.42,9.42,0,0,0,5.2,61.892a.826.826,0,0,0-.2.539v1.65a.217.217,0,0,0,.2.2H19.684a.252.252,0,0,0,.168-.034,4.581,4.581,0,0,1,2.324-.842c-.808.168-2.863,1.549-3.031,2.256-.135.573.269,1.212,1.28,1.212l6.433.034a.159.159,0,0,0,.168-.168V65.664c0-.067-.034-.135-.1-.135a15.021,15.021,0,0,0-3.806-.606v-.034C23.826,64.687,27.6,63.374,27.6,61.488Z" transform="translate(0 -27.407)" fill="#060f1a"/><path d="M5.168,78.35H18.337c.034-.1-.067-.236-.1-.269a.573.573,0,0,1-.034-.236A1.54,1.54,0,0,1,18.64,76.8a.065.065,0,0,0-.034-.1H5.168A.159.159,0,0,0,5,76.868v1.28A.189.189,0,0,0,5.168,78.35Z" transform="translate(0 -39.083)" fill="#060f1a"/><path d="M26.546,36.684A13.3,13.3,0,0,0,24.29,42.51a.437.437,0,0,0,.3.471c2.324.741,4.345,2.223,5.826,1.381a.385.385,0,0,0,.168-.438l-.842-3.94a.157.157,0,0,1,.269-.135l2.223,2.391a.124.124,0,0,0,.1.034l4.446.674a.408.408,0,0,0,.438-.269l.2-.741a.383.383,0,0,0-.269-.471l-3.6-1.044a.072.072,0,0,1-.067-.067l-3.031-3.839a2.546,2.546,0,0,0-1.145-.842A2.469,2.469,0,0,0,26.546,36.684Z" transform="translate(-12.79 -11.797)" fill="#060f1a"/></g></svg>