<svg xmlns="http://www.w3.org/2000/svg" width="19.004" height="30.266" viewBox="0 0 19.004 30.266"><g transform="translate(-23.815)"><path d="M27,24.226S19.092,8.991,30.747,3.58c0,0,1-2.955,2.539-3.58l.5,3.58A13.935,13.935,0,0,1,37.449,6.2c.957,1.249,5.37,5.453,5.37,5.453v1.582L40.9,14.708a11.269,11.269,0,0,0-3.746-1.346c-1.623-.125-3.08,1.665-4.038.333,0,0,6.868,6.743,5.911,10.531Zm14.512,4.487h-17.7v1.553h17.7Zm-1.156-3.862H24.97a1.155,1.155,0,0,0-1.155,1.155v2.066h17.7V26.006A1.155,1.155,0,0,0,40.358,24.851Z" transform="translate(0 0)" fill="#060f1a"/></g></svg>