<svg xmlns="http://www.w3.org/2000/svg" width="28.261" height="27.953" viewBox="0 0 28.261 27.953"><g transform="translate(-51.763 -13.198)"><g transform="translate(51.763 13.198)"><path d="M312.484,27.522l4.257-3.41a7.177,7.177,0,0,1,5.367,1.311l-.736.589a4.454,4.454,0,1,0,1.1,1.373l4.822-3.863-1.6-7.686,2.546,1.114a4.442,4.442,0,1,0,.56-1.2l-7.834-3.428-.854.684a.761.761,0,0,0-.369.16l-2.1,1.685-2.243-.954a.769.769,0,0,0-.141-.044,1.1,1.1,0,0,0-.622-.085,2.206,2.206,0,0,0-1.643,2.506,10.646,10.646,0,0,0,1.613,5.13,1.855,1.855,0,0,0,1.644.968L312.215,25.6Zm7.716,4.006a2.693,2.693,0,1,1-.249-4.377l-2.069,1.657,1.1,1.373,2.069-1.658A2.7,2.7,0,0,1,320.2,31.528Zm9.668-13.864,2.642,1.156.529-1.208-2.588-1.132a2.695,2.695,0,1,1-.583,1.184Zm-12.411-1.209a.773.773,0,0,0,.784-.107l2.463-1.973a.769.769,0,0,0,.244-.345l.218-.174,1.308.572-4.409,3.532.43,1.553-.933.2a16.7,16.7,0,0,1-1.079-3.67Z" transform="translate(-312.215 -8.284)" fill="#060f1a"/><circle cx="2.167" cy="2.167" r="2.167" transform="translate(0.617 0.767) rotate(-10.19)" fill="#060f1a"/><path d="M54.375,114.245l.008,0v-1.581c.708-.211,1.476-.455,2.281-.733v1.905l.775.029.3-.029v-2.288c.755-.278,1.532-.585,2.316-.922v3.246l.36.056h.006l.705.135v-3.915c.875-.4,1.75-.846,2.6-1.326v5.458l1.071-.037v-6.055c.651-.4,1.282-.831,1.883-1.285l-.184-.244a37.994,37.994,0,0,1-10.681,5.232c-1.663.547-3.123.941-4.168,1.2-.522.129-.94.223-1.228.286s-.442.092-.443.092l.058.3s1.306-.251,3.277-.8V114Z" transform="translate(-43.783 -87.665)" fill="#060f1a"/><path d="M526.183,188.068c.142-.243.588-.835,1.13-.717-.578-.65-1.227.343-1.227.343s-1.049-.555-1.24.294C525.265,187.622,525.941,187.925,526.183,188.068Z" transform="translate(-501.95 -165.252)" fill="#060f1a"/><path d="M553.152,199.666c.142-.243.588-.835,1.13-.717-.578-.65-1.227.342-1.227.342s-1.049-.555-1.24.294C552.234,199.219,552.91,199.522,553.152,199.666Z" transform="translate(-526.422 -175.775)" fill="#060f1a"/><path d="M557.467,168.651c.142-.243.587-.835,1.13-.717-.578-.651-1.227.342-1.227.342s-1.048-.555-1.24.294C556.549,168.2,557.225,168.507,557.467,168.651Z" transform="translate(-530.337 -147.632)" fill="#060f1a"/><path d="M2.956,224.419l-1.425.2L.98,225.1l-.98.364,1.466.617H22.957l-.735-.285-.245-.506-1.286-.3-.674-.537-4.47.04-2.082-.1-1.378-.055-1.561.04-1.623-.016-1.439.116-2.51-.148Z" transform="translate(3.134 -198.125)" fill="#060f1a"/></g></g></svg>