<svg xmlns="http://www.w3.org/2000/svg" width="28.628" height="23.423" viewBox="0 0 28.628 23.423"><g transform="translate(0 -4)"><circle cx="0.583" cy="0.583" r="0.583" transform="translate(22.479 16.878)" fill="#060f1a"/><circle cx="0.583" cy="0.583" r="0.583" transform="translate(20.146 16.878)" fill="#060f1a"/><circle cx="0.583" cy="0.583" r="0.583" transform="translate(17.813 16.878)" fill="#060f1a"/><path d="M20.952,30A1.952,1.952,0,1,0,22.9,31.952,1.917,1.917,0,0,0,20.952,30Zm0,2.6a.651.651,0,1,1,.651-.651A.615.615,0,0,1,20.952,32.6Z" transform="translate(-6.638 -9.083)" fill="#060f1a"/><path d="M32.952,33.9A1.952,1.952,0,1,0,31,31.952,1.917,1.917,0,0,0,32.952,33.9Zm0-2.6a.651.651,0,1,1-.651.651A.615.615,0,0,1,32.952,31.3Z" transform="translate(-10.83 -9.083)" fill="#060f1a"/><path d="M8.952,30A1.952,1.952,0,1,0,10.9,31.952,1.917,1.917,0,0,0,8.952,30Zm0,2.6a.651.651,0,1,1,.651-.651A.615.615,0,0,1,8.952,32.6Z" transform="translate(-2.446 -9.083)" fill="#060f1a"/><path d="M28.238,8.62a.594.594,0,0,0-.716.13l-.455.455H19.259l-.781-1.5A1.959,1.959,0,0,0,16.721,6.6H7.157V4.651A.615.615,0,0,0,6.506,4a.615.615,0,0,0-.651.651V6.6H5.205A1.917,1.917,0,0,0,3.253,8.554v1.562A1.886,1.886,0,0,0,4.75,12l3.709.911v1.5H3.839A2.592,2.592,0,0,0,1.5,15.842l-.455.846a.685.685,0,0,0,.26.846.358.358,0,0,0,.325.13.625.625,0,0,0,.586-.39l.455-.846a1.229,1.229,0,0,1,1.171-.716H25.245a1.25,1.25,0,0,1,1.236.911l.846,2.472v1.3a1.732,1.732,0,0,1-.2.781l-.521,1.171a4.414,4.414,0,0,0-1.366-2.733h.13a.651.651,0,1,0,0-1.3H.651A.615.615,0,0,0,0,18.965V20.4a2.913,2.913,0,0,0,.26,1.3l1.692,3.774a3.288,3.288,0,0,0,2.993,1.952H23.683a3.288,3.288,0,0,0,2.993-1.952L28.368,21.7a2.913,2.913,0,0,0,.26-1.3V18.965a.239.239,0,0,0-.065-.2l-.846-2.537a2.6,2.6,0,0,0-2.472-1.757H18.868V13.109A1.665,1.665,0,0,0,19.974,10.7l-.065-.2h7.157l.455.455a.591.591,0,0,0,.455.2.391.391,0,0,0,.26-.065.625.625,0,0,0,.39-.586v-1.3A.569.569,0,0,0,28.238,8.62ZM25.375,22.868a3.253,3.253,0,1,1-3.253-3.253A3.222,3.222,0,0,1,25.375,22.868Zm-6.441-3.253a4.913,4.913,0,0,0-.716.911,4.913,4.913,0,0,0-.716-.911Zm-4.62,6.506a3.253,3.253,0,1,1,3.253-3.253A3.222,3.222,0,0,1,14.314,26.122Zm-3.188-6.506a4.913,4.913,0,0,0-.716.911,4.913,4.913,0,0,0-.716-.911Zm-4.62,6.506A3.253,3.253,0,1,1,9.76,22.868,3.222,3.222,0,0,1,6.506,26.122ZM1.3,20.4v-.781H3.318a4.585,4.585,0,0,0-1.366,2.733l-.521-1.171A3.266,3.266,0,0,1,1.3,20.4Zm8.393,5.726a4.913,4.913,0,0,0,.716-.911,4.913,4.913,0,0,0,.716.911Zm7.808,0a4.913,4.913,0,0,0,.716-.911,4.913,4.913,0,0,0,.716.911Zm.976-14.314H14.314a.651.651,0,1,0,0,1.3h3.253v1.3H9.76V12.458a.634.634,0,0,0-.521-.651L5.01,10.767a.7.7,0,0,1-.521-.651V8.554A.615.615,0,0,1,5.14,7.9H16.721a.625.625,0,0,1,.586.39l1.5,2.993c0,.065.065.13.065.2A.422.422,0,0,1,18.478,11.808Z" fill="#060f1a"/></g></svg>