<svg xmlns="http://www.w3.org/2000/svg" width="26.585" height="26.585" viewBox="0 0 26.585 26.585"><g transform="translate(-10 -10)"><circle cx="1.108" cy="1.108" r="1.108" transform="translate(14.431 19.969)" fill="#060f1a"/><path d="M41.108,56.667A1.108,1.108,0,1,1,40,57.775,1.107,1.107,0,0,1,41.108,56.667Z" transform="translate(-20.031 -31.159)" fill="#060f1a"/><path d="M42.216,28.872V23.333H40v6.646a1.107,1.107,0,0,0,1.108,1.108h6.646V28.872Z" transform="translate(-20.031 -8.902)" fill="#060f1a"/><path d="M67.744,63.313V61.1H65.9a3.9,3.9,0,0,0-.3-.723l1.3-1.3-1.568-1.567-1.3,1.3a3.891,3.891,0,0,0-.722-.3V56.667H61.1v1.841a3.9,3.9,0,0,0-.723.3l-1.3-1.3-1.567,1.568,1.3,1.3a3.9,3.9,0,0,0-.3.723H56.667v2.216h1.841a3.891,3.891,0,0,0,.3.722l-1.3,1.3L59.073,66.9l1.3-1.3a3.932,3.932,0,0,0,.724.3v1.841h2.216V65.9a3.942,3.942,0,0,0,.724-.3l1.3,1.3,1.568-1.566-1.3-1.3a3.911,3.911,0,0,0,.3-.722Zm-5.539.554a1.662,1.662,0,1,1,1.662-1.662A1.662,1.662,0,0,1,62.205,63.867Z" transform="translate(-31.159 -31.159)" fill="#060f1a"/><path d="M21.077,10a11.077,11.077,0,0,0,0,22.154h2.216V29.939H21.077a8.862,8.862,0,1,1,8.862-8.862v2.216h2.216V21.077A11.078,11.078,0,0,0,21.077,10Z" fill="#060f1a"/></g></svg>